<?xml version="1.0" standalone="no"?>
<!DOCTYPE svg PUBLIC "-//W3C//DTD SVG 1.1//EN" "http://www.w3.org/Graphics/SVG/1.1/DTD/svg11.dtd" >
<svg xmlns="http://www.w3.org/2000/svg">
<metadata></metadata>
<defs>
<font id="archivo_narrowregular" horiz-adv-x="456" >
<font-face units-per-em="1000" ascent="800" descent="-200" />
<missing-glyph horiz-adv-x="228" />
<glyph unicode="&#xd;" horiz-adv-x="0" />
<glyph unicode=" "  horiz-adv-x="228" />
<glyph unicode="&#x09;" horiz-adv-x="228" />
<glyph unicode="&#xa0;" horiz-adv-x="228" />
<glyph unicode="!" horiz-adv-x="228" d="M60 686h113q-1 -10 -26 -515h-62q-20 437 -25 515zM167 108v-108h-100v108h100z" />
<glyph unicode="&#x22;" horiz-adv-x="291" d="M119 686v-147l-21 -132h-39q-4 23 -11 67t-11 65v147h82zM252 686v-147l-22 -132h-39l-21 132v147h82z" />
<glyph unicode="#" d="M430 696l-47 -210h60v-76h-77l-34 -155h71v-76h-88l-40 -179h-76l40 179h-90l-40 -179h-76l40 179h-64v76h81l34 155h-76v76h93l47 210h76l-47 -210h90l47 210h76zM290 410h-90l-34 -155h90z" />
<glyph unicode="$" d="M251 723v-106q65 -5 102 -45.5t37 -97.5v-12l-1 -7h-81v9q0 69 -57 82v-158q27 -9 43 -15t39 -19.5t35.5 -28.5t22 -39.5t9.5 -55.5q0 -75 -40 -115t-109 -46v-118h-49v118q-75 6 -112 49.5t-37 103.5q0 6 0.5 11t0.5 8v3h82v-10q0 -79 66 -94v179q-32 11 -51 20 t-41.5 26t-33.5 42.5t-11 60.5q0 62 36.5 101t100.5 47v107h49zM251 301v-162q30 5 48.5 25t18.5 54q0 53 -67 83zM202 407v139q-55 -11 -55 -72q0 -43 55 -67z" />
<glyph unicode="%" horiz-adv-x="729" d="M173 698q64 0 96 -40.5t32 -140.5q0 -99 -32 -139.5t-96 -40.5t-96 40.5t-32 139.5q0 100 32 140.5t96 40.5zM173 639q-34 0 -46.5 -29t-12.5 -85v-15q0 -56 12.5 -85t46.5 -29t46.5 29t12.5 85v15q0 56 -12.5 85t-46.5 29zM565 290q-34 0 -46.5 -29t-12.5 -85v-15 q0 -56 12.5 -85t46.5 -29t46.5 29t12.5 85v15q0 56 -12.5 85t-46.5 29zM565 349q64 0 96 -40.5t32 -140.5q0 -99 -32 -139.5t-96 -40.5t-96 40.5t-32 139.5q0 100 32 140.5t96 40.5zM614 686l-419 -686h-70l418 686h71z" />
<glyph unicode="&#x26;" horiz-adv-x="547" d="M256 698q92 0 150 -51.5t58 -136.5v-18h-82v9q0 61 -34.5 91.5t-92.5 30.5q-53 0 -86.5 -29t-33.5 -89q0 -58 30 -89t75 -31h51v-73h-49q-119 0 -119 -122q0 -127 131 -127q128 0 128 128v194h152v-74h-70v-117q0 -96 -55.5 -151t-160.5 -55q-95 0 -154 53t-59 143 q0 65 27.5 108t73.5 60v4q-89 51 -89 154q0 90 56.5 139t152.5 49z" />
<glyph unicode="'" horiz-adv-x="157" d="M117 686v-147l-21 -132h-39q-4 23 -11 67t-11 65v147h82z" />
<glyph unicode="(" horiz-adv-x="273" d="M204 735h54q-59 -96 -96 -214.5t-37 -230.5t37 -231.5t96 -215.5h-54q-79 93 -121.5 207.5t-42.5 237.5t42.5 239t121.5 208z" />
<glyph unicode=")" horiz-adv-x="273" d="M15 735h54q79 -92 121.5 -208t42.5 -239t-42.5 -237.5t-121.5 -207.5h-54q59 96 96 215.5t37 231.5t-37 230.5t-96 214.5z" />
<glyph unicode="*" horiz-adv-x="319" d="M193 686l-9 -88l74 51l34 -58l-82 -38l82 -38l-34 -59l-74 52l9 -89h-68l9 89l-74 -52l-34 59l82 38l-82 38l34 58l74 -52l-9 89h68z" />
<glyph unicode="+" horiz-adv-x="479" d="M280 511v-214h155v-84h-155v-213h-83v213h-154v84h154v214h83z" />
<glyph unicode="," horiz-adv-x="228" d="M164 108v-99l-48 -133h-52l40 124h-40v108h100z" />
<glyph unicode="-" horiz-adv-x="273" d="M262 319v-98h-252v98h252z" />
<glyph unicode="." horiz-adv-x="228" d="M164 108v-108h-100v108h100z" />
<glyph unicode="/" horiz-adv-x="228" d="M228 735l-156 -784h-71l157 784h70z" />
<glyph unicode="0" d="M228 698q62 0 101.5 -29.5t63 -109.5t23.5 -216t-23.5 -216t-63 -109.5t-101.5 -29.5q-95 0 -141.5 78t-46.5 277t46.5 277t141.5 78zM228 625q-30 0 -51 -18t-32 -52.5t-16 -77t-5 -99.5v-70q0 -57 5 -99.5t16 -77t32 -52.5t51 -18t51 18t32 52.5t16 77t5 99.5v70 q0 57 -5 99.5t-16 77t-32 52.5t-51 18z" />
<glyph unicode="1" d="M295 686v-613h150v-73h-395v73h163v488h-164v52q44 5 106 25.5t108 47.5h32z" />
<glyph unicode="2" d="M230 698q80 0 129.5 -44t49.5 -134q0 -60 -29.5 -119.5t-66 -100t-85 -94t-70.5 -87.5q-12 -17 -18 -35h272v-84h-373v13q0 79 48 149q24 35 70 86t79 87t59.5 86.5t26.5 99.5q0 41 -21.5 71t-71.5 30t-73 -36.5t-23 -94.5v-41h-85q-3 16 -3 40q0 104 52.5 156t132.5 52z " />
<glyph unicode="3" d="M225 698q82 0 130.5 -49t48.5 -139q0 -103 -89 -154v-4q46 -17 73.5 -60t27.5 -108q0 -90 -52 -143t-136 -53q-92 0 -142.5 55.5t-50.5 150.5v8h84v-11q0 -130 103 -130q51 0 80.5 32t29.5 97q0 122 -113 122h-57v73h59q42 0 70.5 31t28.5 89q0 60 -26.5 90t-67.5 30 q-43 0 -69 -31.5t-26 -92.5v-9h-84v18q0 85 49.5 136.5t128.5 51.5z" />
<glyph unicode="4" d="M198 698h83q-25 -123 -85.5 -262t-98.5 -194h188v216q20 50 42 138h40v-354h70v-73h-70v-169h-82v169h-265v74q115 209 178 455z" />
<glyph unicode="5" d="M394 686v-84h-241l-13 -209q53 53 121 53q71 0 116.5 -57t45.5 -165q0 -112 -51 -174t-140 -62q-88 0 -140 60.5t-52 164.5h85q0 -69 30.5 -111t76.5 -42q48 0 77 42t29 122q0 70 -27 109t-72 39q-32 0 -59.5 -21.5t-42.5 -57.5l-78 13l23 380h312z" />
<glyph unicode="6" d="M232 698q84 0 125 -61t41 -162h-83q0 150 -87 150q-59 0 -81 -64.5t-23 -194.5q47 65 121 65q83 0 127 -62t44 -159q0 -101 -50 -161.5t-129 -60.5q-98 0 -147.5 76.5t-49.5 258.5q0 205 48 290t144 85zM232 359q-49 0 -75 -42t-26 -107t26 -107t75 -42t74.5 42t25.5 107 t-25.5 107t-74.5 42z" />
<glyph unicode="7" d="M423 686v-53q-212 -320 -212 -582q0 -27 1 -51h-93q0 279 201 602h-287v84h390z" />
<glyph unicode="8" d="M228 698q83 0 128.5 -54t45.5 -137q0 -105 -75 -155q89 -44 89 -164q0 -89 -46.5 -144.5t-141.5 -55.5t-141.5 55.5t-46.5 144.5q0 120 88 164q-74 50 -74 155q0 83 45.5 137t128.5 54zM228 314q-50 0 -77 -33.5t-27 -92.5t27 -93t77 -34t77 34t27 93t-27 92.5t-77 33.5z M228 625q-42 0 -67 -32t-25 -87t25 -87t67 -32t67.5 32t25.5 87t-25.5 87t-67.5 32z" />
<glyph unicode="9" d="M219 698q98 0 147.5 -76.5t49.5 -258.5q0 -205 -47 -290t-141 -85q-86 0 -128 61t-42 162h83q0 -150 91 -150q29 0 49 17.5t30.5 53t15 79.5t5.5 108q-48 -64 -121 -64q-83 0 -127 62t-44 159q0 101 50 161.5t129 60.5zM224 625q-49 0 -74.5 -42t-25.5 -107t25.5 -107 t74.5 -42t75 42t26 107t-26 107t-75 42z" />
<glyph unicode=":" horiz-adv-x="228" d="M164 108v-108h-100v108h100zM164 526v-108h-100v108h100z" />
<glyph unicode=";" horiz-adv-x="228" d="M164 108v-99l-48 -133h-52l40 124h-40v108h100zM164 526v-108h-100v108h100z" />
<glyph unicode="&#x3c;" horiz-adv-x="479" d="M436 504v-90l-311 -160l311 -160v-90l-392 196v107z" />
<glyph unicode="=" horiz-adv-x="479" d="M435 402v-84h-392v84h392zM435 189v-83h-392v83h392z" />
<glyph unicode="&#x3e;" horiz-adv-x="479" d="M44 504l392 -197v-107l-392 -196v90l311 160l-311 160v90z" />
<glyph unicode="?" d="M236 698q75 0 124 -50t49 -128q0 -53 -13.5 -93t-32.5 -62.5t-38 -41.5t-32.5 -44.5t-13.5 -57.5v-41h-87v56q0 37 13 66.5t31.5 50.5t37 41.5t31.5 49.5t13 65q0 14 -3 30t-11 36t-27.5 33t-47.5 13q-30 0 -50.5 -14t-29.5 -37t-12 -42.5t-3 -41.5l1 -27h-89 q-3 23 -3 35q0 89 50 146.5t143 57.5zM285 108v-108h-100v108h100z" />
<glyph unicode="@" horiz-adv-x="832" d="M427 698q164 0 261.5 -92.5t97.5 -284.5q0 -81 -18 -142t-47.5 -93.5t-60.5 -48t-63 -15.5q-74 0 -89 62h-4q-40 -63 -117 -63q-20 0 -39 5t-40 18.5t-33.5 41.5t-12.5 69q0 92 62.5 126t179.5 34v62q0 38 -16.5 58t-59.5 20q-39 0 -56 -22t-17 -54v-11h-74q-1 6 -1 20 q0 64 42 98.5t112 34.5q71 0 107.5 -34.5t36.5 -99.5v-262q0 -38 34 -38q47 0 81.5 54.5t34.5 180.5q0 164 -81 242.5t-221 78.5q-153 0 -238 -96.5t-85 -285.5q0 -180 72 -269.5t220 -89.5q33 0 79.5 9.5t70.5 22.5v-60q-27 -11 -73 -19t-77 -8q-167 0 -258.5 102 t-91.5 313q0 116 30 202t84 136t121 74t147 24zM504 205v44q-82 0 -123 -18.5t-41 -70.5q0 -40 16 -56.5t49 -16.5q39 0 69 31.5t30 86.5z" />
<glyph unicode="A" horiz-adv-x="547" d="M453 0l-47 153h-272l-47 -153h-88l218 686h113l218 -686h-95zM252 538l-94 -305h223l-93 305l-16 76h-4q-9 -54 -16 -76z" />
<glyph unicode="B" horiz-adv-x="547" d="M65 0v686h260q77 0 127 -46.5t50 -121.5q0 -57 -29.5 -99.5t-75.5 -58.5v-4q53 -16 87 -63t34 -111q0 -84 -55.5 -133t-137.5 -49h-260zM307 311h-154v-231h160q50 0 81.5 30t31.5 84q0 48 -33 82.5t-86 34.5zM305 606h-152v-215h146q49 0 80 31.5t31 76.5q0 53 -28 80 t-77 27z" />
<glyph unicode="C" horiz-adv-x="592" d="M312 698q109 0 174 -66.5t65 -193.5h-90q0 88 -40 133.5t-109 45.5q-178 0 -178 -249v-50q0 -249 178 -249q71 0 111.5 45t40.5 132h87q0 -128 -64.5 -193t-174.5 -65q-270 0 -270 355t270 355z" />
<glyph unicode="D" horiz-adv-x="592" d="M283 0h-213v686h213q123 0 191.5 -85t68.5 -248q0 -174 -68 -263.5t-192 -89.5zM275 606h-117v-526h117q83 0 129.5 62.5t46.5 185.5v50q0 112 -46.5 170t-129.5 58z" />
<glyph unicode="E" horiz-adv-x="547" d="M499 0h-429v686h423v-80h-335v-215h291v-80h-291v-231h341v-80z" />
<glyph unicode="F" horiz-adv-x="501" d="M158 0h-88v686h396v-80h-308v-222h272v-80h-272v-304z" />
<glyph unicode="G" horiz-adv-x="638" d="M515 0l-19 76q-60 -88 -177 -88q-131 0 -200.5 89t-69.5 266q0 175 72 265t203 90q112 0 180.5 -63t68.5 -183h-90q0 83 -42.5 124t-116.5 41q-87 0 -135 -63t-48 -186v-50q0 -249 178 -249q85 0 124.5 48t39.5 147v16h-178v77h268v-357h-58z" />
<glyph unicode="H" horiz-adv-x="592" d="M522 686v-686h-88v311h-276v-311h-88v686h88v-295h276v295h88z" />
<glyph unicode="I" horiz-adv-x="228" d="M158 686v-686h-88v686h88z" />
<glyph unicode="J" horiz-adv-x="410" d="M345 686v-523q0 -85 -43.5 -130t-122.5 -45t-122.5 45t-43.5 130v45h88v-50q0 -89 78 -89t78 89v528h88z" />
<glyph unicode="K" horiz-adv-x="547" d="M158 686v-363l272 363h98l-206 -277l213 -409h-100l-167 335l-110 -122v-213h-88v686h88z" />
<glyph unicode="L" d="M438 0h-368v686h88v-606h280v-80z" />
<glyph unicode="M" horiz-adv-x="683" d="M621 0h-88v498l7 106h-4q-16 -82 -23 -106l-137 -498h-79l-137 498l-21 106h-4q6 -86 6 -106v-498h-79v686h134l121 -450q6 -22 11.5 -60.5t8.5 -65.5l3 -28h4q9 106 22 154l122 450h133v-686z" />
<glyph unicode="N" horiz-adv-x="592" d="M522 686v-686h-73l-257 437l-44 92l-3 -1q4 -63 4 -91v-437h-79v686h76l255 -431l42 -92l3 1q-3 69 -3 91v431h79z" />
<glyph unicode="O" horiz-adv-x="638" d="M319 698q128 0 199 -90t71 -265t-71 -265t-199 -90t-199 90t-71 265t71 265t199 90zM319 617q-84 0 -131 -63t-47 -186v-50q0 -123 47 -186t131 -63t131 63t47 186v50q0 123 -47 186t-131 63z" />
<glyph unicode="P" horiz-adv-x="547" d="M315 283h-157v-283h-88v686h245q99 0 152 -54t53 -146t-55.5 -147.5t-149.5 -55.5zM312 606h-154v-243h154q52 0 84 33.5t32 89.5t-30 88t-86 32z" />
<glyph unicode="Q" horiz-adv-x="638" d="M49 343q0 175 71 265t199 90t199 -90t71 -265q0 -270 -163 -336l142 -131h-118l-119 112h-12q-128 0 -199 90t-71 265zM141 368v-50q0 -123 47 -186t131 -63t131 63t47 186v50q0 123 -47 186t-131 63t-131 -63t-47 -186z" />
<glyph unicode="R" horiz-adv-x="592" d="M551 496q0 -64 -32 -111t-90 -66l138 -319h-98l-127 303h-184v-303h-88v686h276q99 0 152 -51.5t53 -138.5zM343 606h-185v-223h185q52 0 84 31t32 82q0 52 -30 81t-86 29z" />
<glyph unicode="S" horiz-adv-x="547" d="M273 698q96 0 155.5 -47.5t59.5 -145.5v-12h-91v15q0 51 -34.5 80t-87.5 29q-57 0 -92 -24.5t-35 -71.5q0 -38 26.5 -64t66 -39t85.5 -30t85.5 -35.5t66 -58.5t26.5 -96q0 -110 -62.5 -160t-169.5 -50q-102 0 -166.5 50t-64.5 156q0 4 0.5 11.5t0.5 8.5h91l-1 -4v-9v-8 q0 -61 37.5 -92.5t98.5 -31.5q69 0 106.5 29.5t37.5 84.5q0 47 -37 76t-89 45t-104.5 35.5t-89.5 62.5t-37 112q0 90 61 137t157 47z" />
<glyph unicode="T" horiz-adv-x="501" d="M19 606v80h462v-80h-187v-606h-88v606h-187z" />
<glyph unicode="U" horiz-adv-x="592" d="M522 686v-463q0 -114 -59.5 -174.5t-166.5 -60.5t-166.5 60.5t-59.5 174.5v463h88v-468q0 -72 36.5 -110.5t101.5 -38.5t101.5 38.5t36.5 110.5v468h88z" />
<glyph unicode="V" horiz-adv-x="547" d="M539 686l-209 -686h-113l-209 686h97l170 -589h4l175 589h85z" />
<glyph unicode="W" horiz-adv-x="774" d="M764 686l-159 -686h-114l-84 465l-19 138h-4q-11 -92 -19 -138l-82 -465h-114l-159 686h93l105 -474l21 -122h4q7 62 17 122l79 474h122l85 -474l18 -122h4q11 77 21 122l105 474h80z" />
<glyph unicode="X" horiz-adv-x="547" d="M427 686h94l-199 -322l221 -364h-104l-169 280l-172 -280h-94l219 356l-199 330h104l148 -245q151 244 151 245z" />
<glyph unicode="Y" horiz-adv-x="547" d="M539 686l-221 -402v-284h-88v284l-222 402h97l174 -318h4l171 318h85z" />
<glyph unicode="Z" horiz-adv-x="501" d="M479 0h-459v38l326 568h-305v80h431v-38l-327 -568h334v-80z" />
<glyph unicode="[" horiz-adv-x="228" d="M208 735v-65h-83v-766h83v-65h-159v896h159z" />
<glyph unicode="\" horiz-adv-x="228" d="M71 735l157 -784h-71l-156 784h70z" />
<glyph unicode="]" horiz-adv-x="228" d="M179 735v-896h-159v65h83v766h-83v65h159z" />
<glyph unicode="^" horiz-adv-x="385" d="M247 686l137 -392h-90l-101 315l-99 -315h-90l136 392h107z" />
<glyph unicode="_" d="M455 -71v-53h-455v53h455z" />
<glyph unicode="`" horiz-adv-x="273" d="M118 723l86 -132h-69l-108 129l1 3h90z" />
<glyph unicode="a" d="M223 538q79 0 119 -38t40 -109v-295q0 -35 28 -35h32v-57q-22 -12 -54 -12t-53.5 17.5t-29.5 47.5h-5q-43 -69 -128 -69q-18 0 -34.5 3t-36 12.5t-34 25t-24 43.5t-9.5 64q0 53 19.5 88.5t57 54t82.5 26t107 7.5v68q0 41 -18 63t-65 22q-43 0 -62 -24t-19 -59v-12h-81 q-1 6 -1 22q0 70 46 108t123 38zM300 191v48q-90 0 -135 -20.5t-45 -77.5q0 -43 17.5 -61.5t53.5 -18.5q43 0 76 34.5t33 95.5z" />
<glyph unicode="b" d="M138 61h-5l-11 -61h-62v723h82v-247h5q13 29 43 45.5t69 16.5q70 0 113.5 -69t43.5 -205q0 -276 -163 -276q-77 0 -115 73zM330 244v38q0 97 -23 140t-71 43q-94 0 -94 -187v-34q0 -183 94 -183q48 0 71 43t23 140z" />
<glyph unicode="c" horiz-adv-x="410" d="M216 538q84 0 122.5 -52t38.5 -155h-85q0 71 -16.5 102.5t-59.5 31.5q-94 0 -94 -183v-38q0 -183 94 -183q43 0 61.5 33t18.5 101h81q0 -90 -39.5 -148.5t-121.5 -58.5q-93 0 -136.5 66.5t-43.5 208.5t44 208.5t136 66.5z" />
<glyph unicode="d" d="M396 723v-723h-62l-11 61h-5q-38 -73 -115 -73q-163 0 -163 276q0 136 43.5 205t113.5 69q39 0 69 -16.5t43 -45.5h5v247h82zM220 465q-48 0 -71 -43t-23 -140v-38q0 -97 23 -140t71 -43q94 0 94 183v34q0 187 -94 187z" />
<glyph unicode="e" d="M240 538q88 0 130.5 -58.5t42.5 -188.5v-52h-285q1 -92 28.5 -135t86.5 -43q40 0 64.5 32t24.5 86h81q0 -88 -47.5 -139.5t-124.5 -51.5q-100 0 -149.5 65.5t-49.5 209.5q0 141 49 208t149 67zM240 465q-53 0 -79.5 -37.5t-31.5 -115.5h198q0 153 -87 153z" />
<glyph unicode="f" horiz-adv-x="228" d="M159 731q35 0 69 -12v-57h-44q-47 0 -47 -48v-88h91v-73h-91v-453h-82v453h-46v73h46v84q0 52 24.5 86.5t79.5 34.5z" />
<glyph unicode="g" d="M364 611h72q0 -48 -23.5 -82t-64.5 -44q47 -49 47 -124q0 -81 -45.5 -128.5t-122.5 -48.5h-55q-20 0 -34 -13.5t-14 -33.5q0 -19 14 -33t34 -14h150q56 0 90 -35.5t34 -87.5q0 -65 -40.5 -107t-113.5 -42h-149q-62 0 -96 35.5t-34 89.5q0 39 18.5 69.5t49.5 42.5 q-43 27 -43 79q0 64 74 91q-61 50 -61 136q0 83 46 130t126 47q41 0 76 -19q56 30 65 92zM301 12h-145q-30 0 -45.5 -17t-15.5 -44t16 -44.5t45 -17.5h145q26 0 44 18t18 44q0 27 -16 44t-46 17zM222 470q-43 0 -66 -29t-23 -80q0 -53 23 -81t66 -28t66.5 29t23.5 80 q0 53 -23.5 81t-66.5 28z" />
<glyph unicode="h" d="M142 723v-252h6q38 67 118 67q130 0 130 -159v-379h-82v373q0 51 -19 71.5t-55 20.5q-41 0 -69.5 -39t-28.5 -105v-321h-82v723h82z" />
<glyph unicode="i" horiz-adv-x="182" d="M132 526v-526h-82v526h82zM132 723v-98h-82v98h82z" />
<glyph unicode="j" horiz-adv-x="182" d="M132 526v-587q0 -52 -24.5 -86.5t-79.5 -34.5q-35 0 -69 12v57h44q47 0 47 48v591h82zM132 723v-98h-82v98h82z" />
<glyph unicode="k" horiz-adv-x="410" d="M142 723v-441l170 244h91l-155 -216l163 -310h-93l-120 240l-56 -61v-179h-82v723h82z" />
<glyph unicode="l" horiz-adv-x="182" d="M132 723v-723h-82v723h82z" />
<glyph unicode="m" horiz-adv-x="683" d="M499 538q124 0 124 -159v-379h-82v373q0 92 -68 92q-38 0 -64 -39t-26 -105v-321h-82v373q0 92 -68 92q-38 0 -64.5 -39t-26.5 -105v-321h-82v526h62l11 -61h6q39 73 120 73q85 0 112 -76q20 37 54.5 56.5t73.5 19.5z" />
<glyph unicode="n" d="M266 538q130 0 130 -159v-379h-82v373q0 51 -19 71.5t-55 20.5q-41 0 -69.5 -39t-28.5 -105v-321h-82v526h62l11 -61h6q41 73 127 73z" />
<glyph unicode="o" d="M228 538q188 0 188 -275t-188 -275t-188 275t188 275zM228 465q-102 0 -102 -183v-38q0 -183 102 -183t102 183v38q0 183 -102 183z" />
<glyph unicode="p" d="M253 538q163 0 163 -276q0 -136 -43.5 -205t-113.5 -69q-38 0 -68.5 15.5t-43.5 42.5h-5v-219h-82v699h62l11 -61h5q38 73 115 73zM236 465q-94 0 -94 -183v-38q0 -183 94 -183q48 0 71 43t23 140v38q0 97 -23 140t-71 43z" />
<glyph unicode="q" d="M318 465h5l11 61h62v-699h-82v219h-5q-13 -27 -43.5 -42.5t-68.5 -15.5q-70 0 -113.5 69t-43.5 205q0 276 163 276q77 0 115 -73zM126 282v-38q0 -97 23 -140t71 -43q94 0 94 183v38q0 183 -94 183q-48 0 -71 -43t-23 -140z" />
<glyph unicode="r" horiz-adv-x="273" d="M228 538q10 0 19.5 -2t14.5 -4l5 -2v-85h-27q-43 0 -70.5 -29.5t-27.5 -94.5v-321h-82v526h62l11 -69h6q26 81 89 81z" />
<glyph unicode="s" horiz-adv-x="410" d="M209 538q71 0 111 -41.5t40 -102.5v-12l-1 -7h-85v9q0 35 -17 58.5t-56 23.5t-55 -22t-16 -50q0 -31 24.5 -50t60 -30t71 -26t60 -49.5t24.5 -88.5q0 -81 -45.5 -121.5t-122.5 -40.5q-85 0 -127 44.5t-42 109.5q0 6 0.5 11t0.5 8v3h86v-10q0 -47 24 -70.5t62 -23.5 q34 0 56.5 20.5t22.5 57.5q0 36 -24.5 58t-60 33.5t-71 26t-60 47.5t-24.5 85q0 69 44.5 109.5t119.5 40.5z" />
<glyph unicode="t" horiz-adv-x="228" d="M141 672v-146h71v-73h-71v-344q0 -48 47 -48h24v-57q-24 -14 -59 -14q-50 0 -72 34.5t-22 86.5v342h-45v73h45l18 146h64z" />
<glyph unicode="u" d="M396 526v-526h-62l-11 61h-6q-41 -73 -127 -73q-130 0 -130 159v379h82v-373q0 -51 19 -71.5t55 -20.5q41 0 69.5 39t28.5 105v321h82z" />
<glyph unicode="v" horiz-adv-x="410" d="M401 526l-151 -526h-89l-151 526h90l107 -400h4l107 400h83z" />
<glyph unicode="w" horiz-adv-x="592" d="M590 526l-131 -526h-91l-55 300l-16 121h-4q-6 -66 -16 -121l-54 -300h-91l-131 526h90l66 -296l21 -125h4q7 71 16 125l53 296h95l54 -296l16 -125h4q8 65 21 125l66 296h83z" />
<glyph unicode="x" horiz-adv-x="410" d="M397 526l-147 -253l154 -273h-99l-103 192l-106 -192h-90l153 266l-146 260h99l95 -180l98 180h92z" />
<glyph unicode="y" horiz-adv-x="410" d="M401 526l-134 -499q-26 -98 -66 -153.5t-104 -55.5q-36 0 -59 8v57h29q79 0 104 117l-161 526h90l116 -408h4l98 408h83z" />
<glyph unicode="z" horiz-adv-x="410" d="M370 526v-38l-232 -415h245v-73h-357v39l231 414h-215v73h328z" />
<glyph unicode="{" horiz-adv-x="274" d="M254 735v-57q-79 0 -79 -71q0 -43 -7 -206q-2 -54 -22 -81t-66 -27v-10q46 0 66 -27t22 -81q7 -163 7 -206q0 -71 79 -71v-57q-73 0 -115 31t-42 117v197q0 31 -23 45.5t-54 14.5v84q30 0 52 13q25 17 25 47v197q0 86 42 117t115 31z" />
<glyph unicode="|" horiz-adv-x="213" d="M146 723v-896h-79v896h79z" />
<glyph unicode="}" horiz-adv-x="274" d="M20 678v57q73 0 115 -31t42 -117v-197q0 -31 23 -45.5t54 -14.5v-84q-30 0 -52 -13q-25 -15 -25 -47v-197q0 -86 -42 -117t-115 -31v57q79 0 79 71q0 43 7 206q2 54 22 81t66 27v10q-46 0 -66 27t-22 81q-7 163 -7 206q0 71 -79 71z" />
<glyph unicode="~" horiz-adv-x="479" d="M444 388v-92q-2 -3 -5 -8t-14 -17.5t-23.5 -22t-33 -17.5t-42.5 -8q-32 0 -86 31q-54 30 -87 30q-19 0 -38.5 -7.5t-33 -18.5t-24.5 -21.5t-17 -18.5l-5 -7v92q2 3 5 8t14 17.5t23.5 22t33 17.5t42.5 8q30 0 86 -30q52 -31 87 -31q31 0 60.5 18.5t43.5 36.5z" />
<glyph unicode="&#xa1;" horiz-adv-x="273" d="M125 355h62q25 -505 26 -515h-113q5 78 25 515zM207 526v-108h-100v108h100z" />
<glyph unicode="&#xa2;" d="M259 723v-106q77 -7 112.5 -58.5t35.5 -147.5h-85q0 62 -14 93.5t-49 38.5v-400q67 14 67 132h81q0 -84 -36.5 -141t-111.5 -65v-118h-49v118q-83 9 -122.5 75.5t-39.5 198.5q0 131 39.5 198t122.5 75v107h49zM210 144v397q-76 -20 -76 -179v-38q0 -159 76 -180z" />
<glyph unicode="&#xa3;" d="M252 698q161 0 161 -194v-13h-82v16q0 118 -79 118q-78 0 -78 -110v-139h133v-72h-134l-9 -225h249v-79h-383v79h61v225h-72v72h72v123q0 98 42 148.5t119 50.5z" />
<glyph unicode="&#xa4;" d="M228 589q79 0 140 -59l43 43l48 -48l-49 -49q35 -62 35 -134q0 -74 -35 -134l49 -49l-48 -48l-43 43q-61 -58 -140 -58t-140 58l-43 -43l-48 48l49 49q-35 60 -35 134q0 72 35 134l-49 49l48 48l42 -43q61 59 141 59zM228 520q-62 0 -105.5 -52t-43.5 -126t43.5 -125.5 t105.5 -51.5q61 0 104.5 51.5t43.5 125.5t-43 126t-105 52z" />
<glyph unicode="&#xa5;" d="M453 686l-150 -317h128v-65h-159v-70h159v-65h-159v-169h-88v169h-159v65h159v70h-159v65h128l-151 317h95l136 -293h4l133 293h83z" />
<glyph unicode="&#xa6;" horiz-adv-x="213" d="M146 723v-380h-79v380h79zM146 207v-380h-79v380h79z" />
<glyph unicode="&#xa7;" d="M242 698q71 0 111 -41.5t40 -102.5q0 -4 -1 -12v-7h-85v9q0 35 -17 58.5t-56 23.5q-38 0 -54.5 -22t-16.5 -50q0 -41 24.5 -70t60 -48t71 -41t60 -61t24.5 -95q0 -85 -70 -135q60 -53 60 -136q0 -70 -43 -110t-121 -40q-71 0 -111 41.5t-40 102.5v12l1 7h85v-9 q0 -35 17 -58.5t56 -23.5q38 0 54.5 22t16.5 50q0 41 -24.5 70t-60 48t-71 41t-60 61t-24.5 95q0 86 70 134q-60 51 -60 137q0 70 43 110t121 40zM182 379q-34 -26 -34 -81q0 -22 6.5 -41t14.5 -31.5t25 -27t27.5 -21.5t34 -21t32.5 -20q35 28 35 82q0 22 -6.5 41t-14 31.5 t-26 27.5t-27.5 21t-34.5 21t-32.5 19z" />
<glyph unicode="&#xa8;" horiz-adv-x="273" d="M255 723v-95h-87v95h87zM105 723v-95h-87v95h87z" />
<glyph unicode="&#xa9;" horiz-adv-x="604" d="M302 698q131 0 206 -96t75 -259t-75 -259t-206 -96t-206 96t-75 259t75 259t206 96zM304 558q64 0 102.5 -39t38.5 -114h-58q0 50 -22 75.5t-61 25.5q-100 0 -100 -142v-30q0 -143 100 -143q39 0 62 25.5t23 74.5h56q0 -75 -38.5 -113.5t-102.5 -38.5q-159 0 -159 209 q0 210 159 210zM302 651q-109 0 -172 -83.5t-63 -224.5t63 -224.5t172 -83.5t172 83.5t63 224.5t-63 224.5t-172 83.5z" />
<glyph unicode="&#xaa;" horiz-adv-x="303" d="M149 735q109 0 109 -100v-198q0 -22 17 -22h23v-41q-13 -9 -38 -9q-45 0 -58 43q-30 -46 -87 -46q-37 0 -66 21.5t-29 79.5q0 70 46 95.5t133 25.5v43q0 56 -53 56q-28 0 -40.5 -16t-12.5 -39v-10h-59v17q0 48 31.5 74t83.5 26zM199 500v31q-58 0 -87.5 -13.5 t-29.5 -51.5q0 -51 46 -51q27 0 49 22.5t22 62.5z" />
<glyph unicode="&#xab;" d="M417 526l-112 -200l112 -200h-70l-142 200l142 200h70zM266 526l-113 -200l113 -200h-71l-141 200l141 200h71z" />
<glyph unicode="&#xac;" horiz-adv-x="479" d="M435 453v-256h-84v163h-312v93h396z" />
<glyph unicode="&#xad;" horiz-adv-x="273" d="M262 319v-98h-252v98h252z" />
<glyph unicode="&#xae;" horiz-adv-x="604" d="M302 698q131 0 206 -96t75 -259t-75 -259t-206 -96t-206 96t-75 259t75 259t206 96zM302 651q-109 0 -172 -83.5t-63 -224.5t63 -224.5t172 -83.5t172 83.5t63 224.5t-63 224.5t-172 83.5zM174 550h161q45 0 74 -28t29 -73q0 -35 -17.5 -60t-45.5 -34v-4q7 -3 15 -8.5 t19 -17.5t18.5 -33t7.5 -48q0 -40 6.5 -55.5t21.5 -21.5v-17q-13 -5 -29 -5q-57 0 -57 76q0 55 -19.5 78.5t-45.5 23.5h-81v-175h-57v402zM317 497h-86v-121h83q30 0 47.5 17.5t17.5 44.5q0 28 -17 43.5t-45 15.5z" />
<glyph unicode="&#xaf;" horiz-adv-x="273" d="M262 671v-72h-250v72h250z" />
<glyph unicode="&#xb0;" horiz-adv-x="400" d="M198 698q56 0 95.5 -39.5t39.5 -95.5t-39.5 -95.5t-95.5 -39.5t-95.5 39.5t-39.5 95.5t39.5 95.5t95.5 39.5zM198 644q-34 0 -58 -23.5t-24 -57.5t24 -58t58 -24t57.5 24t23.5 58t-23.5 57.5t-57.5 23.5z" />
<glyph unicode="&#xb1;" horiz-adv-x="549" d="M315 578v-184h155v-84h-155v-183h-83v183h-154v84h154v184h83zM470 83v-83h-392v83h392z" />
<glyph unicode="&#xb2;" horiz-adv-x="273" d="M141 735q49 0 79.5 -27t30.5 -82q0 -31 -16 -64.5t-33 -54.5t-45 -52q-4 -4 -14.5 -15.5t-16.5 -18t-13.5 -17t-11.5 -19.5h151v-63h-228v16q0 34 16.5 66.5t40 58.5t47.5 50.5t40.5 54t16.5 58.5q0 50 -45 50q-47 0 -47 -66v-31h-63q-2 17 -2 30q0 63 32 94.5t81 31.5z " />
<glyph unicode="&#xb3;" horiz-adv-x="273" d="M139 735q50 0 80 -30t30 -85q0 -59 -48 -89q54 -28 54 -96q0 -55 -31.5 -87t-82.5 -32q-56 0 -87 33.5t-31 91.5v11h64v-13q0 -66 50 -66q55 0 55 65q0 62 -56 62h-35v57h36q21 0 35 15.5t14 44.5q0 30 -13 45.5t-33 15.5q-21 0 -34 -16t-13 -47v-13h-63v18 q0 52 30.5 83.5t78.5 31.5z" />
<glyph unicode="&#xb4;" horiz-adv-x="273" d="M244 723l1 -3l-108 -129h-69l86 132h90z" />
<glyph unicode="&#xb5;" d="M396 526v-526h-62l-11 61h-6q-41 -73 -127 -73q-28 0 -48 7v-168h-82v699h82v-384q0 -81 74 -81q41 0 69.5 39t28.5 105v321h82z" />
<glyph unicode="&#xb6;" horiz-adv-x="440" d="M419 686v-61h-48v-798h-66v798h-53v-798h-65v423q-72 10 -120.5 71.5t-48.5 145.5q0 91 56 155t136 64h209z" />
<glyph unicode="&#xb7;" horiz-adv-x="228" d="M164 399v-111h-101v111h101z" />
<glyph unicode="&#xb8;" horiz-adv-x="273" d="M150 11l-7 -47q81 -6 81 -65q0 -45 -32 -63t-72 -18q-46 0 -84 8v49h76q36 0 36 24t-34 24h-33l14 88h55z" />
<glyph unicode="&#xb9;" horiz-adv-x="273" d="M181 724v-344h73v-58h-214v58h79v258h-80v43q61 8 113 43h29z" />
<glyph unicode="&#xba;" horiz-adv-x="299" d="M149 735q128 0 128 -187t-128 -187t-128 187t128 187zM149 682q-66 0 -66 -121v-26q0 -121 66 -121q67 0 67 121v26q0 121 -67 121z" />
<glyph unicode="&#xbb;" d="M261 526l141 -200l-141 -200h-71l113 200l-113 200h71zM109 526l142 -200l-142 -200h-70l112 200l-112 200h70z" />
<glyph unicode="&#xbc;" horiz-adv-x="684" d="M593 698l-415 -710h-63l416 710h62zM173 686v-344h73v-58h-214v58h79v258h-80v43q61 8 113 43h29zM493 413h62q-15 -69 -45.5 -144t-54.5 -116h85v91q27 72 35 111h27v-202h40v-57h-40v-96h-62v96h-151v52q63 114 104 265z" />
<glyph unicode="&#xbd;" horiz-adv-x="684" d="M582 698l-415 -710h-63l416 710h62zM173 686v-344h73v-58h-214v58h79v258h-80v43q61 8 113 43h29zM530 413q49 0 79.5 -27t30.5 -82q0 -31 -16 -64.5t-33 -54.5t-45 -52q-4 -4 -14.5 -15.5t-16.5 -18t-13.5 -17t-11.5 -19.5h151v-63h-228v16q0 34 16.5 66.5t40.5 58.5 t47.5 50.5t40 54t16.5 58.5q0 50 -45 50q-47 0 -47 -66v-31h-63q-2 17 -2 30q0 63 32 94.5t81 31.5z" />
<glyph unicode="&#xbe;" horiz-adv-x="684" d="M585 698l-415 -710h-63l416 710h62zM143 698q50 0 80 -30t30 -85q0 -59 -48 -89q54 -28 54 -96q0 -55 -31.5 -87t-82.5 -32q-56 0 -87 33.5t-31 91.5v11h64v-13q0 -66 50 -66q55 0 55 65q0 62 -56 62h-35v57h36q21 0 35 15.5t14 44.5q0 30 -13 45.5t-33 15.5 q-21 0 -34 -16t-13 -47v-13h-63v18q0 52 30.5 83.5t78.5 31.5zM493 413h62q-15 -69 -45.5 -144t-54.5 -116h85v91q27 72 35 111h27v-202h40v-57h-40v-96h-62v96h-151v52q63 114 104 265z" />
<glyph unicode="&#xbf;" horiz-adv-x="501" d="M287 346v-56q0 -37 -13 -67.5t-31.5 -51.5t-37 -41.5t-31.5 -50t-13 -66.5q0 -14 3 -29t12 -34.5t29.5 -32t49.5 -12.5q90 0 90 135l-1 27h89q3 -23 3 -35q0 -92 -48.5 -148t-139.5 -56q-77 0 -127.5 48.5t-50.5 125.5q0 51 13.5 90t32.5 62.5t38 44t32.5 47t13.5 59.5 v41h87zM294 526v-108h-100v108h100z" />
<glyph unicode="&#xc0;" horiz-adv-x="547" d="M333 751h-69l-108 129l1 3h90zM453 0l-47 153h-272l-47 -153h-88l218 686h113l218 -686h-95zM252 538l-94 -305h223l-93 305l-16 76h-4q-9 -54 -16 -76z" />
<glyph unicode="&#xc1;" horiz-adv-x="547" d="M391 880l-108 -129h-69l86 132h90zM453 0l-47 153h-272l-47 -153h-88l218 686h113l218 -686h-95zM252 538l-94 -305h223l-93 305l-16 76h-4q-9 -54 -16 -76z" />
<glyph unicode="&#xc2;" horiz-adv-x="547" d="M313 882l85 -135h-80l-44 79l-45 -79h-80l86 135h78zM453 0l-47 153h-272l-47 -153h-88l218 686h113l218 -686h-95zM252 538l-94 -305h223l-93 305l-16 76h-4q-9 -54 -16 -76z" />
<glyph unicode="&#xc3;" horiz-adv-x="547" d="M361 883h58q0 -40 -21.5 -72t-63.5 -32q-22 0 -59 15.5t-56 15.5q-30 0 -33 -31h-59q0 40 22 72t63 32q22 0 59 -15t56 -15q30 0 34 30zM453 0l-47 153h-272l-47 -153h-88l218 686h113l218 -686h-95zM252 538l-94 -305h223l-93 305l-16 76h-4q-9 -54 -16 -76z" />
<glyph unicode="&#xc4;" horiz-adv-x="547" d="M453 0l-47 153h-272l-47 -153h-88l218 686h113l218 -686h-95zM252 538l-94 -305h223l-93 305l-16 76h-4q-9 -54 -16 -76zM392 883v-95h-87v95h87zM242 883v-95h-87v95h87z" />
<glyph unicode="&#xc5;" horiz-adv-x="547" d="M273 915q41 0 68.5 -28t27.5 -68t-28 -68t-68 -28q-39 0 -67.5 28t-28.5 68t28 68t68 28zM273 870q-20 0 -35.5 -15t-15.5 -36t15.5 -36t35.5 -15t35.5 15t15.5 36t-15.5 36t-35.5 15zM453 0l-47 153h-272l-47 -153h-88l218 686h113l218 -686h-95zM252 538l-94 -305h223 l-93 305l-16 76h-4q-9 -54 -16 -76z" />
<glyph unicode="&#xc6;" horiz-adv-x="820" d="M783 0h-330l-34 153h-273l-59 -153h-88l280 686h498v-80h-367l49 -215h274v-80h-256l52 -231h254v-80zM298 543l-121 -310h225l-68 310l-11 62h-4q-13 -40 -21 -62z" />
<glyph unicode="&#xc7;" horiz-adv-x="592" d="M312 698q109 0 174 -66.5t65 -193.5h-90q0 88 -40 133.5t-109 45.5q-178 0 -178 -249v-50q0 -249 178 -249q71 0 111.5 45t40.5 132h87q0 -128 -64.5 -193t-174.5 -65l-3 -24q81 -6 81 -65q0 -45 -32 -63t-72 -18q-46 0 -84 8v49h76q36 0 36 24t-34 24h-33l11 69 q-216 33 -216 351q0 355 270 355z" />
<glyph unicode="&#xc8;" horiz-adv-x="547" d="M333 751h-69l-108 129l1 3h90zM499 0h-429v686h423v-80h-335v-215h291v-80h-291v-231h341v-80z" />
<glyph unicode="&#xc9;" horiz-adv-x="547" d="M391 880l-108 -129h-69l86 132h90zM499 0h-429v686h423v-80h-335v-215h291v-80h-291v-231h341v-80z" />
<glyph unicode="&#xca;" horiz-adv-x="547" d="M313 882l85 -135h-80l-44 79l-45 -79h-80l86 135h78zM499 0h-429v686h423v-80h-335v-215h291v-80h-291v-231h341v-80z" />
<glyph unicode="&#xcb;" horiz-adv-x="547" d="M392 883v-95h-87v95h87zM242 883v-95h-87v95h87zM499 0h-429v686h423v-80h-335v-215h291v-80h-291v-231h341v-80z" />
<glyph unicode="&#xcc;" horiz-adv-x="228" d="M158 0h-88v686h88v-686zM174 751h-69l-108 129l1 3h90z" />
<glyph unicode="&#xcd;" horiz-adv-x="228" d="M158 0h-88v686h88v-686zM231 880l-107 -129h-69l86 132h89z" />
<glyph unicode="&#xce;" horiz-adv-x="228" d="M158 686v-686h-88v686h88zM154 882l85 -135h-80l-44 79l-45 -79h-81l87 135h78z" />
<glyph unicode="&#xcf;" horiz-adv-x="228" d="M158 686v-686h-88v686h88zM233 883v-95h-87v95h87zM83 883v-95h-87v95h87z" />
<glyph unicode="&#xd0;" horiz-adv-x="592" d="M5 323v64h65v299h213q123 0 191.5 -85t68.5 -248q0 -174 -68 -263.5t-192 -89.5h-213v323h-65zM275 606h-117v-219h157v-64h-157v-243h117q83 0 129.5 62.5t46.5 185.5v50q0 112 -46.5 170t-129.5 58z" />
<glyph unicode="&#xd1;" horiz-adv-x="592" d="M522 686v-686h-73l-257 437l-44 92l-3 -1q4 -63 4 -91v-437h-79v686h76l255 -431l42 -92l3 1q-3 69 -3 91v431h79zM384 883h58q0 -40 -22 -72t-63 -32q-23 0 -59.5 15.5t-55.5 15.5q-30 0 -34 -31h-58q0 40 22 72t63 32q22 0 59 -15t56 -15q30 0 34 30z" />
<glyph unicode="&#xd2;" horiz-adv-x="638" d="M319 698q128 0 199 -90t71 -265t-71 -265t-199 -90t-199 90t-71 265t71 265t199 90zM319 617q-84 0 -131 -63t-47 -186v-50q0 -123 47 -186t131 -63t131 63t47 186v50q0 123 -47 186t-131 63zM379 751h-69l-108 129l1 3h90z" />
<glyph unicode="&#xd3;" horiz-adv-x="638" d="M319 698q128 0 199 -90t71 -265t-71 -265t-199 -90t-199 90t-71 265t71 265t199 90zM319 617q-84 0 -131 -63t-47 -186v-50q0 -123 47 -186t131 -63t131 63t47 186v50q0 123 -47 186t-131 63zM437 880l-108 -129h-69l86 132h90z" />
<glyph unicode="&#xd4;" horiz-adv-x="638" d="M319 698q128 0 199 -90t71 -265t-71 -265t-199 -90t-199 90t-71 265t71 265t199 90zM319 617q-84 0 -131 -63t-47 -186v-50q0 -123 47 -186t131 -63t131 63t47 186v50q0 123 -47 186t-131 63zM359 882l85 -135h-80l-44 79l-45 -79h-80l86 135h78z" />
<glyph unicode="&#xd5;" horiz-adv-x="638" d="M319 698q128 0 199 -90t71 -265t-71 -265t-199 -90t-199 90t-71 265t71 265t199 90zM319 617q-84 0 -131 -63t-47 -186v-50q0 -123 47 -186t131 -63t131 63t47 186v50q0 123 -47 186t-131 63zM407 883h58q0 -40 -22 -72t-63 -32q-22 0 -59 15.5t-56 15.5q-30 0 -34 -31 h-58q0 40 22 72t63 32q22 0 59 -15t56 -15q30 0 34 30z" />
<glyph unicode="&#xd6;" horiz-adv-x="638" d="M319 698q128 0 199 -90t71 -265t-71 -265t-199 -90t-199 90t-71 265t71 265t199 90zM319 617q-84 0 -131 -63t-47 -186v-50q0 -123 47 -186t131 -63t131 63t47 186v50q0 123 -47 186t-131 63zM438 883v-95h-87v95h87zM288 883v-95h-87v95h87z" />
<glyph unicode="&#xd7;" horiz-adv-x="479" d="M247 314l153 152l55 -59l-153 -152l153 -151l-55 -59l-153 150l-154 -150l-55 59l153 151l-153 152l55 59z" />
<glyph unicode="&#xd8;" horiz-adv-x="638" d="M589 723l-72 -114q72 -92 72 -266q0 -175 -71 -265t-199 -90q-97 0 -159 49l-46 -74h-64l71 113q-72 90 -72 267q0 175 71 265t199 90q95 0 159 -50l47 75h64zM466 527l-260 -416q43 -42 113 -42q84 0 131 63t47 186v50q0 97 -31 159zM319 617q-84 0 -131 -63t-47 -186 v-50q0 -98 31 -160l260 416q-44 43 -113 43z" />
<glyph unicode="&#xd9;" horiz-adv-x="592" d="M522 686v-463q0 -114 -59.5 -174.5t-166.5 -60.5t-166.5 60.5t-59.5 174.5v463h88v-468q0 -72 36.5 -110.5t101.5 -38.5t101.5 38.5t36.5 110.5v468h88zM355 751h-68l-109 129l1 3h91z" />
<glyph unicode="&#xda;" horiz-adv-x="592" d="M522 686v-463q0 -114 -59.5 -174.5t-166.5 -60.5t-166.5 60.5t-59.5 174.5v463h88v-468q0 -72 36.5 -110.5t101.5 -38.5t101.5 38.5t36.5 110.5v468h88zM413 880l-107 -129h-70l86 132h90z" />
<glyph unicode="&#xdb;" horiz-adv-x="592" d="M522 686v-463q0 -114 -59.5 -174.5t-166.5 -60.5t-166.5 60.5t-59.5 174.5v463h88v-468q0 -72 36.5 -110.5t101.5 -38.5t101.5 38.5t36.5 110.5v468h88zM335 882l86 -135h-80l-44 79l-46 -79h-80l86 135h78z" />
<glyph unicode="&#xdc;" horiz-adv-x="592" d="M522 686v-463q0 -114 -59.5 -174.5t-166.5 -60.5t-166.5 60.5t-59.5 174.5v463h88v-468q0 -72 36.5 -110.5t101.5 -38.5t101.5 38.5t36.5 110.5v468h88zM415 883v-95h-88v95h88zM264 883v-95h-87v95h87z" />
<glyph unicode="&#xdd;" horiz-adv-x="547" d="M318 284v-284h-88v284l-222 402h97l174 -318h4l171 318h85zM391 880l-108 -129h-69l86 132h90z" />
<glyph unicode="&#xde;" horiz-adv-x="547" d="M158 686v-136h157q99 0 152 -54t53 -146t-55.5 -147.5t-149.5 -55.5h-157v-147h-88v686h88zM312 470h-154v-243h154q52 0 84 33.5t32 89.5t-30 88t-86 32z" />
<glyph unicode="&#xdf;" horiz-adv-x="501" d="M254 735q83 0 135.5 -50.5t52.5 -136.5q0 -50 -26.5 -93.5t-68.5 -59.5v-4q51 -19 83.5 -69t32.5 -108q0 -95 -57 -154.5t-143 -59.5h-75v74h67q52 0 88 41t36 100q0 56 -36 95.5t-88 39.5h-67v73h59q46 0 78.5 36t32.5 86q0 54 -28.5 85.5t-80.5 31.5q-54 0 -85.5 -37 t-31.5 -107v-518h-82v516q0 111 56 165t148 54z" />
<glyph unicode="&#xe0;" d="M223 538q79 0 119 -38t40 -109v-295q0 -35 28 -35h32v-57q-22 -12 -54 -12t-53.5 17.5t-29.5 47.5h-5q-43 -69 -128 -69q-18 0 -34.5 3t-36 12.5t-34 25t-24 43.5t-9.5 64q0 53 19.5 88.5t57 54t82.5 26t107 7.5v68q0 41 -18 63t-65 22q-43 0 -62 -24t-19 -59v-12h-81 q-1 6 -1 22q0 70 46 108t123 38zM300 191v48q-90 0 -135 -20.5t-45 -77.5q0 -43 17.5 -61.5t53.5 -18.5q43 0 76 34.5t33 95.5zM283 591h-69l-108 129l1 3h90z" />
<glyph unicode="&#xe1;" d="M223 538q79 0 119 -38t40 -109v-295q0 -35 28 -35h32v-57q-22 -12 -54 -12t-53.5 17.5t-29.5 47.5h-5q-43 -69 -128 -69q-18 0 -34.5 3t-36 12.5t-34 25t-24 43.5t-9.5 64q0 53 19.5 88.5t57 54t82.5 26t107 7.5v68q0 41 -18 63t-65 22q-43 0 -62 -24t-19 -59v-12h-81 q-1 6 -1 22q0 70 46 108t123 38zM300 191v48q-90 0 -135 -20.5t-45 -77.5q0 -43 17.5 -61.5t53.5 -18.5q43 0 76 34.5t33 95.5zM341 720l-108 -129h-69l86 132h90z" />
<glyph unicode="&#xe2;" d="M223 538q79 0 119 -38t40 -109v-295q0 -35 28 -35h32v-57q-22 -12 -54 -12t-53.5 17.5t-29.5 47.5h-5q-43 -69 -128 -69q-18 0 -34.5 3t-36 12.5t-34 25t-24 43.5t-9.5 64q0 53 19.5 88.5t57 54t82.5 26t107 7.5v68q0 41 -18 63t-65 22q-43 0 -62 -24t-19 -59v-12h-81 q-1 6 -1 22q0 70 46 108t123 38zM300 191v48q-90 0 -135 -20.5t-45 -77.5q0 -43 17.5 -61.5t53.5 -18.5q43 0 76 34.5t33 95.5zM268 722l85 -135h-80l-44 79l-45 -79h-80l85 135h79z" />
<glyph unicode="&#xe3;" d="M223 538q79 0 119 -38t40 -109v-295q0 -35 28 -35h32v-57q-22 -12 -54 -12t-53.5 17.5t-29.5 47.5h-5q-43 -69 -128 -69q-18 0 -34.5 3t-36 12.5t-34 25t-24 43.5t-9.5 64q0 53 19.5 88.5t57 54t82.5 26t107 7.5v68q0 41 -18 63t-65 22q-43 0 -62 -24t-19 -59v-12h-81 q-1 6 -1 22q0 70 46 108t123 38zM300 191v48q-90 0 -135 -20.5t-45 -77.5q0 -43 17.5 -61.5t53.5 -18.5q43 0 76 34.5t33 95.5zM316 723h58q0 -40 -22 -72t-63 -32q-22 0 -59 15.5t-56 15.5q-30 0 -34 -31h-58q0 40 20 69q23 35 65 35q20 0 59 -15q38 -16 56 -16q30 0 34 31 z" />
<glyph unicode="&#xe4;" d="M223 538q79 0 119 -38t40 -109v-295q0 -35 28 -35h32v-57q-22 -12 -54 -12t-53.5 17.5t-29.5 47.5h-5q-43 -69 -128 -69q-18 0 -34.5 3t-36 12.5t-34 25t-24 43.5t-9.5 64q0 53 19.5 88.5t57 54t82.5 26t107 7.5v68q0 41 -18 63t-65 22q-43 0 -62 -24t-19 -59v-12h-81 q-1 6 -1 22q0 70 46 108t123 38zM300 191v48q-90 0 -135 -20.5t-45 -77.5q0 -43 17.5 -61.5t53.5 -18.5q43 0 76 34.5t33 95.5zM347 723v-95h-88v95h88zM196 723v-95h-87v95h87z" />
<glyph unicode="&#xe5;" d="M223 538q79 0 119 -38t40 -109v-295q0 -35 28 -35h32v-57q-22 -12 -54 -12t-53.5 17.5t-29.5 47.5h-5q-43 -69 -128 -69q-18 0 -34.5 3t-36 12.5t-34 25t-24 43.5t-9.5 64q0 53 19.5 88.5t57 54t82.5 26t107 7.5v68q0 41 -18 63t-65 22q-43 0 -62 -24t-19 -59v-12h-81 q-1 6 -1 22q0 70 46 108t123 38zM300 191v48q-90 0 -135 -20.5t-45 -77.5q0 -43 17.5 -61.5t53.5 -18.5q43 0 76 34.5t33 95.5zM228 754q40 0 68 -28t28 -67q0 -40 -28 -68.5t-68 -28.5q-39 0 -67.5 28t-28.5 69q0 40 28 67.5t68 27.5zM228 709q-21 0 -36 -14.5t-15 -35.5 t15 -36.5t36 -15.5q20 0 35.5 15.5t15.5 36.5t-15 35.5t-36 14.5z" />
<glyph unicode="&#xe6;" horiz-adv-x="729" d="M504 538q88 0 130.5 -58.5t42.5 -188.5v-52h-285q1 -92 28.5 -135t86.5 -43q40 0 64.5 32t24.5 86h81q0 -88 -47.5 -139.5t-124.5 -51.5q-113 0 -160 80q-60 -80 -152 -80q-153 0 -153 148q0 53 19.5 88.5t57 54t82.5 26t107 7.5v68q0 41 -18 63t-65 22q-43 0 -62 -24 t-19 -59v-12h-81q-1 6 -1 22q0 70 46 108t123 38q97 0 135 -60q48 60 140 60zM306 183v56q-90 0 -135 -20.5t-45 -77.5q0 -43 17.5 -61.5t53.5 -18.5q43 0 76 32t33 90zM504 465q-53 0 -79.5 -37.5t-31.5 -115.5h198q0 153 -87 153z" />
<glyph unicode="&#xe7;" horiz-adv-x="410" d="M216 538q84 0 122.5 -52t38.5 -155h-85q0 71 -16.5 102.5t-59.5 31.5q-94 0 -94 -183v-38q0 -183 94 -183q43 0 61.5 33t18.5 101h81q0 -88 -38.5 -146.5t-117.5 -60.5l-3 -24q81 -6 81 -65q0 -45 -32 -63t-72 -18q-46 0 -84 8v49h76q36 0 36 24t-34 24h-33l11 71 q-67 16 -99 81.5t-32 187.5q0 142 44 208.5t136 66.5z" />
<glyph unicode="&#xe8;" d="M240 538q88 0 130.5 -58.5t42.5 -188.5v-52h-285q1 -92 28.5 -135t86.5 -43q40 0 64.5 32t24.5 86h81q0 -88 -47.5 -139.5t-124.5 -51.5q-100 0 -149.5 65.5t-49.5 209.5q0 141 49 208t149 67zM240 465q-53 0 -79.5 -37.5t-31.5 -115.5h198q0 153 -87 153zM299 591h-69 l-108 129l1 3h90z" />
<glyph unicode="&#xe9;" d="M240 538q88 0 130.5 -58.5t42.5 -188.5v-52h-285q1 -92 28.5 -135t86.5 -43q40 0 64.5 32t24.5 86h81q0 -88 -47.5 -139.5t-124.5 -51.5q-100 0 -149.5 65.5t-49.5 209.5q0 141 49 208t149 67zM240 465q-53 0 -79.5 -37.5t-31.5 -115.5h198q0 153 -87 153zM357 720 l-107 -129h-70l86 132h90z" />
<glyph unicode="&#xea;" d="M240 538q88 0 130.5 -58.5t42.5 -188.5v-52h-285q1 -92 28.5 -135t86.5 -43q40 0 64.5 32t24.5 86h81q0 -88 -47.5 -139.5t-124.5 -51.5q-100 0 -149.5 65.5t-49.5 209.5q0 141 49 208t149 67zM240 465q-53 0 -79.5 -37.5t-31.5 -115.5h198q0 153 -87 153zM268 722 l85 -135h-80l-44 79l-45 -79h-80l85 135h79z" />
<glyph unicode="&#xeb;" d="M240 538q88 0 130.5 -58.5t42.5 -188.5v-52h-285q1 -92 28.5 -135t86.5 -43q40 0 64.5 32t24.5 86h81q0 -88 -47.5 -139.5t-124.5 -51.5q-100 0 -149.5 65.5t-49.5 209.5q0 141 49 208t149 67zM240 465q-53 0 -79.5 -37.5t-31.5 -115.5h198q0 153 -87 153zM347 723v-95 h-88v95h88zM196 723v-95h-87v95h87z" />
<glyph unicode="&#xec;" horiz-adv-x="228" d="M155 0h-82v526h82v-526zM174 591h-69l-108 129l1 3h90z" />
<glyph unicode="&#xed;" horiz-adv-x="228" d="M155 0h-82v526h82v-526zM231 720l-107 -129h-69l86 132h89z" />
<glyph unicode="&#xee;" horiz-adv-x="228" d="M155 526v-526h-82v526h82zM154 722l85 -135h-80l-44 79l-45 -79h-81l87 135h78z" />
<glyph unicode="&#xef;" horiz-adv-x="228" d="M155 526v-526h-82v526h82zM233 723v-95h-87v95h87zM83 723v-95h-87v95h87z" />
<glyph unicode="&#xf0;" d="M119 723h88q38 -41 45 -49l117 11v-60l-71 -7q118 -161 118 -355q0 -275 -188 -275t-188 275q0 140 48 207.5t129 67.5q24 0 50 -12q-19 35 -56 84l-118 -10v60l71 6q-43 49 -47 53zM228 465q-102 0 -102 -183v-38q0 -183 102 -183t102 183v38q0 183 -102 183z" />
<glyph unicode="&#xf1;" d="M266 538q130 0 130 -159v-379h-82v373q0 51 -19 71.5t-55 20.5q-41 0 -69.5 -39t-28.5 -105v-321h-82v526h62l11 -61h6q41 73 127 73zM316 723h58q0 -40 -22 -72t-63 -32q-22 0 -59 15.5t-56 15.5q-30 0 -34 -31h-58q0 40 20 69q23 35 65 35q20 0 59 -15q38 -16 56 -16 q30 0 34 31z" />
<glyph unicode="&#xf2;" d="M228 538q188 0 188 -275t-188 -275t-188 275t188 275zM228 465q-102 0 -102 -183v-38q0 -183 102 -183t102 183v38q0 183 -102 183zM288 591h-69l-109 129l1 3h91z" />
<glyph unicode="&#xf3;" d="M228 538q188 0 188 -275t-188 -275t-188 275t188 275zM228 465q-102 0 -102 -183v-38q0 -183 102 -183t102 183v38q0 183 -102 183zM345 720l-107 -129h-70l86 132h90z" />
<glyph unicode="&#xf4;" d="M228 538q188 0 188 -275t-188 -275t-188 275t188 275zM228 465q-102 0 -102 -183v-38q0 -183 102 -183t102 183v38q0 183 -102 183zM268 722l85 -135h-80l-44 79l-45 -79h-80l85 135h79z" />
<glyph unicode="&#xf5;" d="M228 538q188 0 188 -275t-188 -275t-188 275t188 275zM228 465q-102 0 -102 -183v-38q0 -183 102 -183t102 183v38q0 183 -102 183zM316 723h58q0 -40 -22 -72t-63 -32q-22 0 -59 15.5t-56 15.5q-30 0 -34 -31h-58q0 40 20 69q23 35 65 35q20 0 59 -15q38 -16 56 -16 q30 0 34 31z" />
<glyph unicode="&#xf6;" d="M228 538q188 0 188 -275t-188 -275t-188 275t188 275zM228 465q-102 0 -102 -183v-38q0 -183 102 -183t102 183v38q0 183 -102 183zM347 723v-95h-88v95h88zM196 723v-95h-87v95h87z" />
<glyph unicode="&#xf7;" horiz-adv-x="549" d="M505 297v-84h-462v84h462zM316 141v-90h-84v90h84zM316 460v-91h-84v91h84z" />
<glyph unicode="&#xf8;" horiz-adv-x="501" d="M438 558l-48 -87q48 -67 48 -208q0 -275 -188 -275q-65 0 -106 31l-27 -51h-55l47 87q-47 68 -47 208q0 275 188 275q64 0 105 -31l28 51h55zM341 380l-157 -289q24 -30 66 -30q102 0 102 183v38q0 57 -11 98zM250 465q-102 0 -102 -183v-38q0 -60 10 -99l158 290 q-26 30 -66 30z" />
<glyph unicode="&#xf9;" d="M396 0h-62l-11 61h-6q-41 -73 -127 -73q-130 0 -130 159v379h82v-373q0 -51 19 -71.5t55 -20.5q41 0 69.5 39t28.5 105v321h82v-526zM288 591h-69l-109 129l1 3h91z" />
<glyph unicode="&#xfa;" d="M396 0h-62l-11 61h-6q-41 -73 -127 -73q-130 0 -130 159v379h82v-373q0 -51 19 -71.5t55 -20.5q41 0 69.5 39t28.5 105v321h82v-526zM345 720l-107 -129h-70l86 132h90z" />
<glyph unicode="&#xfb;" d="M396 526v-526h-62l-11 61h-6q-41 -73 -127 -73q-130 0 -130 159v379h82v-373q0 -51 19 -71.5t55 -20.5q41 0 69.5 39t28.5 105v321h82zM268 722l85 -135h-80l-44 79l-45 -79h-80l85 135h79z" />
<glyph unicode="&#xfc;" d="M396 526v-526h-62l-11 61h-6q-41 -73 -127 -73q-130 0 -130 159v379h82v-373q0 -51 19 -71.5t55 -20.5q41 0 69.5 39t28.5 105v321h82zM347 723v-95h-88v95h88zM196 723v-95h-87v95h87z" />
<glyph unicode="&#xfd;" horiz-adv-x="410" d="M401 526l-134 -499q-26 -98 -66 -153.5t-104 -55.5q-36 0 -59 8v57h29q79 0 104 117l-161 526h90l116 -408h4l98 408h83zM322 720l-107 -129h-69l85 132h90z" />
<glyph unicode="&#xfe;" d="M142 723v-243l4 -1q34 59 107 59q163 0 163 -276q0 -136 -43.5 -205t-113.5 -69q-38 0 -68.5 15.5t-43.5 42.5h-5v-219h-82v896h82zM236 465q-94 0 -94 -183v-38q0 -183 94 -183q48 0 71 43t23 140v38q0 97 -23 140t-71 43z" />
<glyph unicode="&#xff;" horiz-adv-x="410" d="M401 526l-134 -499q-26 -98 -66 -153.5t-104 -55.5q-36 0 -59 8v57h29q79 0 104 117l-161 526h90l116 -408h4l98 408h83zM324 723v-95h-88v95h88zM173 723v-95h-87v95h87z" />
<glyph unicode="&#x100;" horiz-adv-x="547" d="M399 831v-72h-251v72h251zM453 0l-47 153h-272l-47 -153h-88l218 686h113l218 -686h-95zM252 538l-94 -305h223l-93 305l-16 76h-4q-9 -54 -16 -76z" />
<glyph unicode="&#x101;" d="M223 538q79 0 119 -38t40 -109v-295q0 -35 28 -35h32v-57q-22 -12 -54 -12t-53.5 17.5t-29.5 47.5h-5q-43 -69 -128 -69q-18 0 -34.5 3t-36 12.5t-34 25t-24 43.5t-9.5 64q0 53 19.5 88.5t57 54t82.5 26t107 7.5v68q0 41 -18 63t-65 22q-43 0 -62 -24t-19 -59v-12h-81 q-1 6 -1 22q0 70 46 108t123 38zM300 191v48q-90 0 -135 -20.5t-45 -77.5q0 -43 17.5 -61.5t53.5 -18.5q43 0 76 34.5t33 95.5zM354 671v-72h-251v72h251z" />
<glyph unicode="&#x102;" horiz-adv-x="547" d="M333 883h64q0 -37 -34.5 -67t-89.5 -30q-54 0 -88.5 30.5t-34.5 66.5h64q3 -12 19.5 -22.5t39.5 -10.5q24 0 41.5 11t18.5 22zM453 0l-47 153h-272l-47 -153h-88l218 686h113l218 -686h-95zM252 538l-94 -305h223l-93 305l-16 76h-4q-9 -54 -16 -76z" />
<glyph unicode="&#x103;" d="M223 538q79 0 119 -38t40 -109v-295q0 -35 28 -35h32v-57q-22 -12 -54 -12t-53.5 17.5t-29.5 47.5h-5q-43 -69 -128 -69q-18 0 -34.5 3t-36 12.5t-34 25t-24 43.5t-9.5 64q0 53 19.5 88.5t57 54t82.5 26t107 7.5v68q0 41 -18 63t-65 22q-43 0 -62 -24t-19 -59v-12h-81 q-1 6 -1 22q0 70 46 108t123 38zM300 191v48q-90 0 -135 -20.5t-45 -77.5q0 -43 17.5 -61.5t53.5 -18.5q43 0 76 34.5t33 95.5zM288 723h64q0 -37 -33 -65q-35 -32 -91 -32q-54 0 -89 30.5t-35 66.5h65q3 -12 18 -22q18 -11 41 -11q24 0 41 10.5t19 22.5z" />
<glyph unicode="&#x104;" horiz-adv-x="547" d="M330 686l218 -686h-30q-24 -33 -24 -62q0 -55 46 -55h31v-51q-33 -14 -61 -14q-38 0 -66 21.5t-28 68.5q0 51 37 92l-47 153h-272l-47 -153h-88l218 686h113zM272 614h-4q-9 -54 -16 -76l-94 -305h223l-93 305z" />
<glyph unicode="&#x105;" d="M223 538q79 0 119 -38t40 -109v-295q0 -35 28 -35h32v-57q-7 -4 -9 -4q-23 -31 -23 -62q0 -55 46 -55h31v-51q-33 -14 -61 -14q-38 0 -66 21.5t-28 68.5q0 48 32 87q-47 12 -59 62h-5q-43 -69 -128 -69q-18 0 -34.5 3t-36 12.5t-34 25t-24 43.5t-9.5 64q0 53 19.5 88.5 t57 54t82.5 26t107 7.5v68q0 41 -18 63t-65 22q-43 0 -62 -24t-19 -59v-12h-81q-1 6 -1 22q0 70 46 108t123 38zM300 191v48q-90 0 -135 -20.5t-45 -77.5q0 -43 17.5 -61.5t53.5 -18.5q43 0 76 34.5t33 95.5z" />
<glyph unicode="&#x106;" horiz-adv-x="592" d="M312 698q109 0 174 -66.5t65 -193.5h-90q0 88 -40 133.5t-109 45.5q-178 0 -178 -249v-50q0 -249 178 -249q71 0 111.5 45t40.5 132h87q0 -128 -64.5 -193t-174.5 -65q-270 0 -270 355t270 355zM428 880l-108 -129h-69l86 132h90z" />
<glyph unicode="&#x107;" horiz-adv-x="410" d="M216 538q84 0 122.5 -52t38.5 -155h-85q0 71 -16.5 102.5t-59.5 31.5q-94 0 -94 -183v-38q0 -183 94 -183q43 0 61.5 33t18.5 101h81q0 -90 -39.5 -148.5t-121.5 -58.5q-93 0 -136.5 66.5t-43.5 208.5t44 208.5t136 66.5zM332 720l-107 -129h-70l86 132h90z" />
<glyph unicode="&#x108;" horiz-adv-x="592" d="M312 698q109 0 174 -66.5t65 -193.5h-90q0 88 -40 133.5t-109 45.5q-178 0 -178 -249v-50q0 -249 178 -249q71 0 111.5 45t40.5 132h87q0 -128 -64.5 -193t-174.5 -65q-270 0 -270 355t270 355zM335 882l86 -135h-80l-44 79l-46 -79h-80l86 135h78z" />
<glyph unicode="&#x109;" horiz-adv-x="410" d="M216 538q84 0 122.5 -52t38.5 -155h-85q0 71 -16.5 102.5t-59.5 31.5q-94 0 -94 -183v-38q0 -183 94 -183q43 0 61.5 33t18.5 101h81q0 -90 -39.5 -148.5t-121.5 -58.5q-93 0 -136.5 66.5t-43.5 208.5t44 208.5t136 66.5zM245 722l85 -135h-80l-44 79l-45 -79h-80l86 135 h78z" />
<glyph unicode="&#x10a;" horiz-adv-x="592" d="M312 698q109 0 174 -66.5t65 -193.5h-90q0 88 -40 133.5t-109 45.5q-178 0 -178 -249v-50q0 -249 178 -249q71 0 111.5 45t40.5 132h87q0 -128 -64.5 -193t-174.5 -65q-270 0 -270 355t270 355zM340 883v-95h-88v95h88z" />
<glyph unicode="&#x10b;" horiz-adv-x="410" d="M216 538q84 0 122.5 -52t38.5 -155h-85q0 71 -16.5 102.5t-59.5 31.5q-94 0 -94 -183v-38q0 -183 94 -183q43 0 61.5 33t18.5 101h81q0 -90 -39.5 -148.5t-121.5 -58.5q-93 0 -136.5 66.5t-43.5 208.5t44 208.5t136 66.5zM249 723v-95h-87v95h87z" />
<glyph unicode="&#x10c;" horiz-adv-x="592" d="M312 698q109 0 174 -66.5t65 -193.5h-90q0 88 -40 133.5t-109 45.5q-178 0 -178 -249v-50q0 -249 178 -249q71 0 111.5 45t40.5 132h87q0 -128 -64.5 -193t-174.5 -65q-270 0 -270 355t270 355zM421 883l-87 -135h-78l-85 135h80l45 -79l45 79h80z" />
<glyph unicode="&#x10d;" horiz-adv-x="410" d="M216 538q84 0 122.5 -52t38.5 -155h-85q0 71 -16.5 102.5t-59.5 31.5q-94 0 -94 -183v-38q0 -183 94 -183q43 0 61.5 33t18.5 101h81q0 -90 -39.5 -148.5t-121.5 -58.5q-93 0 -136.5 66.5t-43.5 208.5t44 208.5t136 66.5zM330 723l-86 -135h-78l-85 135h80l44 -79l45 79 h80z" />
<glyph unicode="&#x10e;" horiz-adv-x="592" d="M421 883l-87 -135h-78l-85 135h80l45 -79l45 79h80zM283 0h-213v686h213q123 0 191.5 -85t68.5 -248q0 -174 -68 -263.5t-192 -89.5zM275 606h-117v-526h117q83 0 129.5 62.5t46.5 185.5v50q0 112 -46.5 170t-129.5 58z" />
<glyph unicode="&#x10f;" horiz-adv-x="504" d="M396 723v-723h-62l-11 61h-5q-38 -73 -115 -73q-163 0 -163 276q0 136 43.5 205t113.5 69q39 0 69 -16.5t43 -45.5h5v247h82zM220 465q-48 0 -71 -43t-23 -140v-38q0 -97 23 -140t71 -43q94 0 94 183v34q0 187 -94 187zM536 686v-99l-49 -133h-51l40 124h-40v108h100z " />
<glyph unicode="&#x110;" horiz-adv-x="592" d="M5 323v64h65v299h213q123 0 191.5 -85t68.5 -248q0 -174 -68 -263.5t-192 -89.5h-213v323h-65zM275 606h-117v-219h157v-64h-157v-243h117q83 0 129.5 62.5t46.5 185.5v50q0 112 -46.5 170t-129.5 58z" />
<glyph unicode="&#x111;" horiz-adv-x="453" d="M396 723v-72h58v-68h-58v-583h-62l-11 61h-5q-38 -73 -115 -73q-163 0 -163 276q0 136 43.5 205t113.5 69q39 0 69 -16.5t43 -45.5h5v107h-111v68h111v72h82zM220 465q-48 0 -71 -43t-23 -140v-38q0 -97 23 -140t71 -43q94 0 94 183v34q0 187 -94 187z" />
<glyph unicode="&#x112;" horiz-adv-x="547" d="M399 831v-72h-251v72h251zM499 0h-429v686h423v-80h-335v-215h291v-80h-291v-231h341v-80z" />
<glyph unicode="&#x113;" d="M240 538q88 0 130.5 -58.5t42.5 -188.5v-52h-285q1 -92 28.5 -135t86.5 -43q40 0 64.5 32t24.5 86h81q0 -88 -47.5 -139.5t-124.5 -51.5q-100 0 -149.5 65.5t-49.5 209.5q0 141 49 208t149 67zM240 465q-53 0 -79.5 -37.5t-31.5 -115.5h198q0 153 -87 153zM354 671v-72 h-251v72h251z" />
<glyph unicode="&#x114;" horiz-adv-x="547" d="M333 883h64q0 -37 -34.5 -67t-89.5 -30q-54 0 -88.5 30.5t-34.5 66.5h64q3 -12 19.5 -22.5t39.5 -10.5q24 0 41.5 11t18.5 22zM499 0h-429v686h423v-80h-335v-215h291v-80h-291v-231h341v-80z" />
<glyph unicode="&#x115;" d="M240 538q88 0 130.5 -58.5t42.5 -188.5v-52h-285q1 -92 28.5 -135t86.5 -43q40 0 64.5 32t24.5 86h81q0 -88 -47.5 -139.5t-124.5 -51.5q-100 0 -149.5 65.5t-49.5 209.5q0 141 49 208t149 67zM240 465q-53 0 -79.5 -37.5t-31.5 -115.5h198q0 153 -87 153zM288 723h64 q0 -37 -33 -65q-35 -32 -91 -32q-54 0 -89 30.5t-35 66.5h65q3 -12 18 -22q18 -11 41 -11q24 0 41 10.5t19 22.5z" />
<glyph unicode="&#x116;" horiz-adv-x="547" d="M317 883v-95h-87v95h87zM499 0h-429v686h423v-80h-335v-215h291v-80h-291v-231h341v-80z" />
<glyph unicode="&#x117;" d="M240 538q88 0 130.5 -58.5t42.5 -188.5v-52h-285q1 -92 28.5 -135t86.5 -43q40 0 64.5 32t24.5 86h81q0 -88 -47.5 -139.5t-124.5 -51.5q-100 0 -149.5 65.5t-49.5 209.5q0 141 49 208t149 67zM240 465q-53 0 -79.5 -37.5t-31.5 -115.5h198q0 153 -87 153zM272 723v-95 h-87v95h87z" />
<glyph unicode="&#x118;" horiz-adv-x="547" d="M493 686v-80h-335v-215h291v-80h-291v-231h341v-80q-24 -33 -24 -62q0 -55 46 -55h31v-51q-33 -14 -61 -14q-38 0 -66 21.5t-28 68.5q0 51 37 92h-364v686h423z" />
<glyph unicode="&#x119;" d="M240 538q88 0 130.5 -58.5t42.5 -188.5v-52h-285q1 -92 28.5 -135t86.5 -43q40 0 64.5 32t24.5 86h81q0 -61 -24 -105.5t-66 -66.5q-29 -34 -29 -69q0 -55 45 -55h32v-51q-33 -14 -61 -14q-38 0 -66 21.5t-28 68.5q0 46 27 80h-2q-100 0 -149.5 65.5t-49.5 209.5 q0 141 49 208t149 67zM240 465q-53 0 -79.5 -37.5t-31.5 -115.5h198q0 153 -87 153z" />
<glyph unicode="&#x11a;" horiz-adv-x="547" d="M398 883l-86 -135h-78l-85 135h80l44 -79l45 79h80zM499 0h-429v686h423v-80h-335v-215h291v-80h-291v-231h341v-80z" />
<glyph unicode="&#x11b;" d="M240 538q88 0 130.5 -58.5t42.5 -188.5v-52h-285q1 -92 28.5 -135t86.5 -43q40 0 64.5 32t24.5 86h81q0 -88 -47.5 -139.5t-124.5 -51.5q-100 0 -149.5 65.5t-49.5 209.5q0 141 49 208t149 67zM240 465q-53 0 -79.5 -37.5t-31.5 -115.5h198q0 153 -87 153zM353 723 l-86 -135h-79l-84 135h80l44 -79l45 79h80z" />
<glyph unicode="&#x11c;" horiz-adv-x="638" d="M359 882l85 -135h-80l-44 79l-45 -79h-80l86 135h78zM515 0l-19 76q-60 -88 -177 -88q-131 0 -200.5 89t-69.5 266q0 175 72 265t203 90q112 0 180.5 -63t68.5 -183h-90q0 83 -42.5 124t-116.5 41q-87 0 -135 -63t-48 -186v-50q0 -249 178 -249q85 0 124.5 48t39.5 147 v16h-178v77h268v-357h-58z" />
<glyph unicode="&#x11d;" d="M369 611h67q0 -48 -23.5 -82t-64.5 -44q47 -49 47 -124q0 -81 -45.5 -128.5t-122.5 -48.5h-55q-20 0 -34 -13.5t-14 -33.5q0 -19 14 -33t34 -14h150q56 0 90 -35.5t34 -87.5q0 -65 -40.5 -107t-113.5 -42h-149q-62 0 -96 35.5t-34 89.5q0 39 18.5 69.5t49.5 42.5 q-43 27 -43 79q0 64 74 91q-61 50 -61 136q0 83 46 130t126 47q41 0 76 -19q39 19 54 38t16 54zM301 12h-145q-30 0 -45.5 -17t-15.5 -44t16 -44.5t45 -17.5h145q26 0 44 18t18 44q0 27 -16 44t-46 17zM222 470q-43 0 -66 -29t-23 -80q0 -53 23 -81t66 -28t66.5 29t23.5 80 q0 53 -23.5 81t-66.5 28zM268 722l85 -135h-80l-44 79l-45 -79h-80l85 135h79z" />
<glyph unicode="&#x11e;" horiz-adv-x="638" d="M379 883h64q0 -37 -34.5 -67t-89.5 -30q-54 0 -88.5 30.5t-34.5 66.5h64q3 -12 19.5 -22.5t39.5 -10.5q24 0 41 10.5t19 22.5zM515 0l-19 76q-60 -88 -177 -88q-131 0 -200.5 89t-69.5 266q0 175 72 265t203 90q112 0 180.5 -63t68.5 -183h-90q0 83 -42.5 124t-116.5 41 q-87 0 -135 -63t-48 -186v-50q0 -249 178 -249q85 0 124.5 48t39.5 147v16h-178v77h268v-357h-58z" />
<glyph unicode="&#x11f;" d="M364 611h72q0 -48 -23.5 -82t-64.5 -44q47 -49 47 -124q0 -81 -45.5 -128.5t-122.5 -48.5h-55q-20 0 -34 -13.5t-14 -33.5q0 -19 14 -33t34 -14h150q56 0 90 -35.5t34 -87.5q0 -65 -40.5 -107t-113.5 -42h-149q-62 0 -96 35.5t-34 89.5q0 39 18.5 69.5t49.5 42.5 q-43 27 -43 79q0 64 74 91q-61 50 -61 136q0 83 46 130t126 47q41 0 76 -19q56 30 65 92zM301 12h-145q-30 0 -45.5 -17t-15.5 -44t16 -44.5t45 -17.5h145q26 0 44 18t18 44q0 27 -16 44t-46 17zM222 470q-43 0 -66 -29t-23 -80q0 -53 23 -81t66 -28t66.5 29t23.5 80 q0 53 -23.5 81t-66.5 28zM288 723h64q0 -37 -33 -65q-35 -32 -91 -32q-54 0 -89 30.5t-35 66.5h65q3 -12 18 -22q18 -11 41 -11q24 0 41 10.5t19 22.5z" />
<glyph unicode="&#x120;" horiz-adv-x="638" d="M363 883v-95h-87v95h87zM515 0l-19 76q-60 -88 -177 -88q-131 0 -200.5 89t-69.5 266q0 175 72 265t203 90q112 0 180.5 -63t68.5 -183h-90q0 83 -42.5 124t-116.5 41q-87 0 -135 -63t-48 -186v-50q0 -249 178 -249q85 0 124.5 48t39.5 147v16h-178v77h268v-357h-58z" />
<glyph unicode="&#x121;" d="M364 611h72q0 -48 -23.5 -82t-64.5 -44q47 -49 47 -124q0 -81 -45.5 -128.5t-122.5 -48.5h-55q-20 0 -34 -13.5t-14 -33.5q0 -19 14 -33t34 -14h150q56 0 90 -35.5t34 -87.5q0 -65 -40.5 -107t-113.5 -42h-149q-62 0 -96 35.5t-34 89.5q0 39 18.5 69.5t49.5 42.5 q-43 27 -43 79q0 64 74 91q-61 50 -61 136q0 83 46 130t126 47q41 0 76 -19q56 30 65 92zM301 12h-145q-30 0 -45.5 -17t-15.5 -44t16 -44.5t45 -17.5h145q26 0 44 18t18 44q0 27 -16 44t-46 17zM222 470q-43 0 -66 -29t-23 -80q0 -53 23 -81t66 -28t66.5 29t23.5 80 q0 53 -23.5 81t-66.5 28zM272 723v-95h-87v95h87z" />
<glyph unicode="&#x122;" horiz-adv-x="638" d="M362 -60v-84l-29 -78h-44l22 71h-34v91h85zM515 0l-19 76q-60 -88 -177 -88q-131 0 -200.5 89t-69.5 266q0 175 72 265t203 90q112 0 180.5 -63t68.5 -183h-90q0 83 -42.5 124t-116.5 41q-87 0 -135 -63t-48 -186v-50q0 -249 178 -249q85 0 124.5 48t39.5 147v16h-178v77 h268v-357h-58z" />
<glyph unicode="&#x123;" d="M364 611h72q0 -48 -23.5 -82t-64.5 -44q47 -49 47 -124q0 -81 -45.5 -128.5t-122.5 -48.5h-55q-20 0 -34 -13.5t-14 -33.5q0 -19 14 -33t34 -14h150q56 0 90 -35.5t34 -87.5q0 -65 -40.5 -107t-113.5 -42h-149q-62 0 -96 35.5t-34 89.5q0 39 18.5 69.5t49.5 42.5 q-43 27 -43 79q0 64 74 91q-61 50 -61 136q0 83 46 130t126 47q41 0 76 -19q56 30 65 92zM301 12h-145q-30 0 -45.5 -17t-15.5 -44t16 -44.5t45 -17.5h145q26 0 44 18t18 44q0 27 -16 44t-46 17zM222 470q-43 0 -66 -29t-23 -80q0 -53 23 -81t66 -28t66.5 29t23.5 80 q0 53 -23.5 81t-66.5 28zM170 595v84l30 78h44l-22 -71h34v-91h-86z" />
<glyph unicode="&#x124;" horiz-adv-x="592" d="M335 882l86 -135h-80l-44 79l-46 -79h-80l86 135h78zM522 686v-686h-88v311h-276v-311h-88v686h88v-295h276v295h88z" />
<glyph unicode="&#x125;" d="M142 723v-252h6q38 67 118 67q130 0 130 -159v-379h-82v373q0 51 -19 71.5t-55 20.5q-41 0 -69.5 -39t-28.5 -105v-321h-82v723h82zM143 882l85 -135h-80l-44 79l-45 -79h-81l86 135h79z" />
<glyph unicode="&#x126;" horiz-adv-x="592" d="M572 562v-72h-50v-490h-88v306h-276v-306h-88v490h-50v72h50v124h88v-124h276v124h88v-124h50zM158 386h276v104h-276v-104z" />
<glyph unicode="&#x127;" d="M142 723v-72h108v-68h-108v-112h6q38 67 118 67q130 0 130 -159v-379h-82v373q0 51 -19 71.5t-55 20.5q-41 0 -69.5 -39t-28.5 -105v-321h-82v583h-60v68h60v72h82z" />
<glyph unicode="&#x128;" horiz-adv-x="228" d="M158 686v-686h-88v686h88zM202 883h58q0 -40 -22 -72t-63 -32q-22 0 -59 15.5t-56 15.5q-30 0 -34 -31h-58q0 40 22 72t63 32q22 0 59 -15t56 -15q30 0 34 30z" />
<glyph unicode="&#x129;" horiz-adv-x="228" d="M155 526v-526h-82v526h82zM202 723h58q0 -40 -22 -72t-63 -32q-22 0 -59 15.5t-56 15.5q-30 0 -34 -31h-58q0 40 20 69q23 35 65 35q20 0 59 -15q38 -16 56 -16q30 0 34 31z" />
<glyph unicode="&#x12a;" horiz-adv-x="228" d="M158 686v-686h-88v686h88zM240 831v-72h-251v72h251z" />
<glyph unicode="&#x12b;" horiz-adv-x="228" d="M155 526v-526h-82v526h82zM240 671v-72h-251v72h251z" />
<glyph unicode="&#x12c;" horiz-adv-x="228" d="M158 686v-686h-88v686h88zM174 883h64q0 -37 -34.5 -67t-89.5 -30q-54 0 -89 30.5t-35 66.5h65q3 -12 19.5 -22.5t39.5 -10.5q24 0 41 10.5t19 22.5z" />
<glyph unicode="&#x12d;" horiz-adv-x="228" d="M155 526v-526h-82v526h82zM174 723h64q0 -37 -33 -65q-35 -32 -91 -32q-54 0 -89 30.5t-35 66.5h65q3 -12 18 -22q20 -11 41 -11q24 0 41 10.5t19 22.5z" />
<glyph unicode="&#x12e;" horiz-adv-x="228" d="M158 686v-686h-7q-24 -33 -24 -62q0 -23 11.5 -39t34.5 -16h32v-51q-33 -14 -61 -14q-38 0 -66.5 21.5t-28.5 68.5q0 51 37 92h-16v686h88z" />
<glyph unicode="&#x12f;" horiz-adv-x="182" d="M132 526v-526h-6q-24 -33 -24 -62q0 -55 45 -55h32v-51q-33 -14 -61 -14q-38 0 -66 21.5t-28 68.5q0 51 37 92h-11v526h82zM136 723v-95h-88v95h88z" />
<glyph unicode="&#x130;" horiz-adv-x="228" d="M158 686v-686h-88v686h88zM158 883v-95h-87v95h87z" />
<glyph unicode="&#x131;" horiz-adv-x="228" d="M155 526v-526h-82v526h82z" />
<glyph unicode="&#x132;" horiz-adv-x="638" d="M158 686v-686h-88v686h88zM573 686v-523q0 -85 -43.5 -130t-122.5 -45t-122.5 45t-43.5 130v45h88v-50q0 -89 78 -89t78 89v528h88z" />
<glyph unicode="&#x133;" horiz-adv-x="364" d="M132 526v-526h-82v526h82zM132 723v-98h-82v98h82zM314 526v-587q0 -52 -24.5 -86.5t-79.5 -34.5q-35 0 -69 12v57h44q47 0 47 48v591h82zM314 723v-98h-82v98h82z" />
<glyph unicode="&#x134;" horiz-adv-x="410" d="M345 686v-523q0 -85 -43.5 -130t-122.5 -45t-122.5 45t-43.5 130v45h88v-50q0 -89 78 -89t78 89v528h88zM341 882l86 -135h-80l-44 79l-46 -79h-80l86 135h78z" />
<glyph unicode="&#x135;" horiz-adv-x="182" d="M132 526v-587q0 -52 -24.5 -86.5t-79.5 -34.5q-35 0 -69 12v57h44q47 0 47 48v591h82zM130 722l86 -135h-80l-44 79l-46 -79h-80l86 135h78z" />
<glyph unicode="&#x136;" horiz-adv-x="547" d="M316 -60v-84l-29 -78h-44l22 71h-34v91h85zM158 686v-363l272 363h98l-206 -277l213 -409h-100l-167 335l-110 -122v-213h-88v686h88z" />
<glyph unicode="&#x137;" horiz-adv-x="410" d="M142 723v-441l170 244h91l-155 -216l163 -310h-93l-120 240l-56 -61v-179h-82v723h82zM248 -60v-84l-29 -78h-45l23 71h-34v91h85z" />
<glyph unicode="&#x138;" horiz-adv-x="408" d="M403 526l-155 -216l163 -310h-93l-120 240l-56 -61v-179h-82v526h82v-244l170 244h91z" />
<glyph unicode="&#x139;" d="M228 880l-107 -129h-70l86 132h90zM438 0h-368v686h88v-606h280v-80z" />
<glyph unicode="&#x13a;" horiz-adv-x="182" d="M132 0h-82v723h82v-723zM208 880l-107 -129h-69l86 132h90v-3z" />
<glyph unicode="&#x13b;" d="M271 -60v-84l-29 -78h-45l23 71h-34v91h85zM438 0h-368v686h88v-606h280v-80z" />
<glyph unicode="&#x13c;" horiz-adv-x="182" d="M132 723v-723h-82v723h82zM134 -60v-84l-29 -78h-44l22 71h-34v91h85z" />
<glyph unicode="&#x13d;" d="M419 686v-99l-48 -133h-52l40 124h-40v108h100zM438 0h-368v686h88v-606h280v-80z" />
<glyph unicode="&#x13e;" horiz-adv-x="239" d="M132 723v-723h-82v723h82zM272 686v-99l-48 -133h-52l40 124h-40v108h100z" />
<glyph unicode="&#x13f;" d="M396 525v-111h-101v111h101zM438 0h-368v686h88v-606h280v-80z" />
<glyph unicode="&#x140;" horiz-adv-x="323" d="M132 723v-723h-82v723h82zM273 399v-111h-101v111h101z" />
<glyph unicode="&#x141;" d="M158 686v-291l137 122v-73l-137 -121v-243h280v-80h-368v245l-70 -61v71l70 62v369h88z" />
<glyph unicode="&#x142;" horiz-adv-x="182" d="M132 723v-332l87 77v-72l-87 -77v-319h-82v246l-71 -62v71l71 63v405h82z" />
<glyph unicode="&#x143;" horiz-adv-x="592" d="M522 0h-73l-257 437l-44 92l-3 -1q4 -63 4 -91v-437h-79v686h76l255 -431l42 -92l3 1q-3 69 -3 91v431h79v-686zM413 880l-107 -129h-70l86 132h90z" />
<glyph unicode="&#x144;" d="M266 538q130 0 130 -159v-379h-82v373q0 51 -19 71.5t-55 20.5q-41 0 -69.5 -39t-28.5 -105v-321h-82v526h62l11 -61h6q41 73 127 73zM345 720l-107 -129h-70l86 132h90z" />
<glyph unicode="&#x145;" horiz-adv-x="592" d="M522 686v-686h-73l-257 437l-44 92l-3 -1q4 -63 4 -91v-437h-79v686h76l255 -431l42 -92l3 1q-3 69 -3 91v431h79zM339 -60v-84l-29 -78h-45l23 71h-35v91h86z" />
<glyph unicode="&#x146;" d="M266 538q130 0 130 -159v-379h-82v373q0 51 -19 71.5t-55 20.5q-41 0 -69.5 -39t-28.5 -105v-321h-82v526h62l11 -61h6q41 73 127 73zM271 -60v-84l-29 -78h-45l23 71h-34v91h85z" />
<glyph unicode="&#x147;" horiz-adv-x="592" d="M522 686v-686h-73l-257 437l-44 92l-3 -1q4 -63 4 -91v-437h-79v686h76l255 -431l42 -92l3 1q-3 69 -3 91v431h79zM421 883l-87 -135h-78l-85 135h80l45 -79l45 79h80z" />
<glyph unicode="&#x148;" d="M266 538q130 0 130 -159v-379h-82v373q0 51 -19 71.5t-55 20.5q-41 0 -69.5 -39t-28.5 -105v-321h-82v526h62l11 -61h6q41 73 127 73zM353 723l-86 -135h-79l-84 135h80l44 -79l45 79h80z" />
<glyph unicode="&#x149;" horiz-adv-x="573" d="M133 685v-84l-29 -78h-45l23 71h-35v91h86zM383 538q130 0 130 -159v-379h-82v373q0 52 -19 72t-56 20q-40 0 -68.5 -39t-28.5 -105v-321h-82v526h62l11 -61h6q41 73 127 73z" />
<glyph unicode="&#x14a;" horiz-adv-x="592" d="M522 686v-747q0 -52 -24.5 -86.5t-79.5 -34.5q-35 0 -69 12v57h44q47 0 47 48v80l-248 422l-44 92l-3 -1q4 -63 4 -91v-437h-79v686h76l255 -431l42 -92l3 1q-3 69 -3 91l-3 431h82z" />
<glyph unicode="&#x14b;" d="M266 538q130 0 130 -159v-440q0 -52 -24.5 -86.5t-79.5 -34.5q-35 0 -69 12v57h44q47 0 47 48v438q0 51 -19 71.5t-55 20.5q-41 0 -69.5 -39t-28.5 -105v-321h-82v526h62l11 -61h6q41 73 127 73z" />
<glyph unicode="&#x14c;" horiz-adv-x="638" d="M319 698q128 0 199 -90t71 -265t-71 -265t-199 -90t-199 90t-71 265t71 265t199 90zM319 617q-84 0 -131 -63t-47 -186v-50q0 -123 47 -186t131 -63t131 63t47 186v50q0 123 -47 186t-131 63zM445 831v-72h-251v72h251z" />
<glyph unicode="&#x14d;" d="M228 538q188 0 188 -275t-188 -275t-188 275t188 275zM228 465q-102 0 -102 -183v-38q0 -183 102 -183t102 183v38q0 183 -102 183zM354 671v-72h-251v72h251z" />
<glyph unicode="&#x14e;" horiz-adv-x="638" d="M319 698q128 0 199 -90t71 -265t-71 -265t-199 -90t-199 90t-71 265t71 265t199 90zM319 617q-84 0 -131 -63t-47 -186v-50q0 -123 47 -186t131 -63t131 63t47 186v50q0 123 -47 186t-131 63zM379 883h64q0 -37 -34.5 -67t-89.5 -30q-54 0 -88.5 30.5t-34.5 66.5h64 q3 -12 19.5 -22.5t39.5 -10.5q24 0 41 10.5t19 22.5z" />
<glyph unicode="&#x14f;" d="M228 538q188 0 188 -275t-188 -275t-188 275t188 275zM228 465q-102 0 -102 -183v-38q0 -183 102 -183t102 183v38q0 183 -102 183zM288 723h64q0 -37 -33 -65q-35 -32 -91 -32q-54 0 -89 30.5t-35 66.5h65q3 -12 18 -22q18 -11 41 -11q24 0 41 10.5t19 22.5z" />
<glyph unicode="&#x150;" horiz-adv-x="638" d="M319 698q128 0 199 -90t71 -265t-71 -265t-199 -90t-199 90t-71 265t71 265t199 90zM319 617q-84 0 -131 -63t-47 -186v-50q0 -123 47 -186t131 -63t131 63t47 186v50q0 123 -47 186t-131 63zM506 883l1 -3l-84 -129h-69l62 132h90zM375 883l1 -3l-84 -129h-68l62 132h89 z" />
<glyph unicode="&#x151;" d="M228 538q188 0 188 -275t-188 -275t-188 275t188 275zM228 465q-102 0 -102 -183v-38q0 -183 102 -183t102 183v38q0 183 -102 183zM415 723l1 -3l-84 -129h-69l62 132h90zM284 723l1 -3l-84 -129h-69l62 132h90z" />
<glyph unicode="&#x152;" horiz-adv-x="820" d="M784 0h-359v68q-55 -80 -152 -80q-107 0 -165.5 89.5t-58.5 265.5t58.5 265.5t165.5 89.5q96 0 152 -80v68h353v-80h-265v-215h220v-80h-220v-231h271v-80zM141 368v-50q0 -123 37.5 -186t104.5 -63t104.5 63t37.5 186v50q0 123 -37.5 186t-104.5 63t-104.5 -63 t-37.5 -186z" />
<glyph unicode="&#x153;" horiz-adv-x="774" d="M543 538q88 0 130.5 -58.5t42.5 -188.5v-52h-285q1 -92 28.5 -135t86.5 -43q40 0 64.5 32t24.5 86h81q0 -88 -47.5 -139.5t-124.5 -51.5q-110 0 -157 76q-45 -76 -146 -76q-188 0 -188 275t188 275q100 0 146 -77q49 77 156 77zM241 465q-102 0 -102 -183v-38 q0 -183 102 -183t102 183v38q0 183 -102 183zM543 465q-53 0 -79.5 -37.5t-31.5 -115.5h198q0 153 -87 153z" />
<glyph unicode="&#x154;" horiz-adv-x="592" d="M391 880l-107 -129h-70l86 132h90zM551 496q0 -64 -32 -111t-90 -66l138 -319h-98l-127 303h-184v-303h-88v686h276q99 0 152 -51.5t53 -138.5zM343 606h-185v-223h185q52 0 84 31t32 82q0 52 -30 81t-86 29z" />
<glyph unicode="&#x155;" horiz-adv-x="273" d="M228 538q10 0 19.5 -2t14.5 -4l5 -2v-85h-27q-43 0 -70.5 -29.5t-27.5 -94.5v-321h-82v526h62l11 -69h6q26 81 89 81zM210 720l-107 -129h-70l86 132h90z" />
<glyph unicode="&#x156;" horiz-adv-x="592" d="M339 -60v-84l-29 -78h-45l23 71h-35v91h86zM551 496q0 -64 -32 -111t-90 -66l138 -319h-98l-127 303h-184v-303h-88v686h276q99 0 152 -51.5t53 -138.5zM343 606h-185v-223h185q52 0 84 31t32 82q0 52 -30 81t-86 29z" />
<glyph unicode="&#x157;" horiz-adv-x="273" d="M228 538q10 0 19.5 -2t14.5 -4l5 -2v-85h-27q-43 0 -70.5 -29.5t-27.5 -94.5v-321h-82v526h62l11 -69h6q26 81 89 81zM152 -60v-84l-29 -78h-45l23 71h-35v91h86z" />
<glyph unicode="&#x158;" horiz-adv-x="592" d="M421 883l-87 -135h-78l-85 135h80l45 -79l45 79h80zM551 496q0 -64 -32 -111t-90 -66l138 -319h-98l-127 303h-184v-303h-88v686h276q99 0 152 -51.5t53 -138.5zM343 606h-185v-223h185q52 0 84 31t32 82q0 52 -30 81t-86 29z" />
<glyph unicode="&#x159;" horiz-adv-x="273" d="M228 538q10 0 19.5 -2t14.5 -4l5 -2v-85h-27q-43 0 -70.5 -29.5t-27.5 -94.5v-321h-82v526h62l11 -69h6q26 81 89 81zM247 723l-86 -135h-78l-86 135h81l44 -79l45 79h80z" />
<glyph unicode="&#x15a;" horiz-adv-x="547" d="M273 698q96 0 155.5 -47.5t59.5 -145.5v-12h-91v15q0 51 -34.5 80t-87.5 29q-57 0 -92 -24.5t-35 -71.5q0 -38 26.5 -64t66 -39t85.5 -30t85.5 -35.5t66 -58.5t26.5 -96q0 -110 -62.5 -160t-169.5 -50q-102 0 -166.5 50t-64.5 156q0 4 0.5 11.5t0.5 8.5h91l-1 -4v-9v-8 q0 -61 37.5 -92.5t98.5 -31.5q69 0 106.5 29.5t37.5 84.5q0 47 -37 76t-89 45t-104.5 35.5t-89.5 62.5t-37 112q0 90 61 137t157 47zM391 880l-108 -129h-69l86 132h90z" />
<glyph unicode="&#x15b;" horiz-adv-x="410" d="M209 538q71 0 111 -41.5t40 -102.5v-12l-1 -7h-85v9q0 35 -17 58.5t-56 23.5t-55 -22t-16 -50q0 -31 24.5 -50t60 -30t71 -26t60 -49.5t24.5 -88.5q0 -81 -45.5 -121.5t-122.5 -40.5q-85 0 -127 44.5t-42 109.5q0 6 0.5 11t0.5 8v3h86v-10q0 -47 24 -70.5t62 -23.5 q34 0 56.5 20.5t22.5 57.5q0 36 -24.5 58t-60 33.5t-71 26t-60 47.5t-24.5 85q0 69 44.5 109.5t119.5 40.5zM322 720l-107 -129h-69l85 132h90z" />
<glyph unicode="&#x15c;" horiz-adv-x="547" d="M273 698q96 0 155.5 -47.5t59.5 -145.5v-12h-91v15q0 51 -34.5 80t-87.5 29q-57 0 -92 -24.5t-35 -71.5q0 -38 26.5 -64t66 -39t85.5 -30t85.5 -35.5t66 -58.5t26.5 -96q0 -110 -62.5 -160t-169.5 -50q-102 0 -166.5 50t-64.5 156q0 4 0.5 11.5t0.5 8.5h91l-1 -4v-9v-8 q0 -61 37.5 -92.5t98.5 -31.5q69 0 106.5 29.5t37.5 84.5q0 47 -37 76t-89 45t-104.5 35.5t-89.5 62.5t-37 112q0 90 61 137t157 47zM313 882l85 -135h-80l-44 79l-45 -79h-80l86 135h78z" />
<glyph unicode="&#x15d;" horiz-adv-x="410" d="M209 538q71 0 111 -41.5t40 -102.5v-12l-1 -7h-85v9q0 35 -17 58.5t-56 23.5t-55 -22t-16 -50q0 -31 24.5 -50t60 -30t71 -26t60 -49.5t24.5 -88.5q0 -81 -45.5 -121.5t-122.5 -40.5q-85 0 -127 44.5t-42 109.5q0 6 0.5 11t0.5 8v3h86v-10q0 -47 24 -70.5t62 -23.5 q34 0 56.5 20.5t22.5 57.5q0 36 -24.5 58t-60 33.5t-71 26t-60 47.5t-24.5 85q0 69 44.5 109.5t119.5 40.5zM245 722l85 -135h-80l-44 79l-45 -79h-80l86 135h78z" />
<glyph unicode="&#x15e;" horiz-adv-x="547" d="M273 698q96 0 155.5 -47.5t59.5 -145.5v-12h-91v15q0 51 -34.5 80t-87.5 29q-57 0 -92 -24.5t-35 -71.5q0 -38 26.5 -64t66 -39t85.5 -30t85.5 -35.5t66 -58.5t26.5 -96q0 -200 -214 -209l-3 -25q81 -6 81 -65q0 -31 -18.5 -50.5t-40 -25t-45.5 -5.5q-46 0 -84 8v49h76 q36 0 36 24t-34 24h-33l10 67q-88 8 -141 57.5t-53 146.5q0 4 0.5 11.5t0.5 8.5h91l-1 -4v-9v-8q0 -61 37.5 -92.5t98.5 -31.5q69 0 106.5 29.5t37.5 84.5q0 47 -37 76t-89 45t-104.5 35.5t-89.5 62.5t-37 112q0 90 61 137t157 47z" />
<glyph unicode="&#x15f;" horiz-adv-x="410" d="M209 538q71 0 111 -41.5t40 -102.5v-12l-1 -7h-85v9q0 35 -17 58.5t-56 23.5t-55 -22t-16 -50q0 -31 24.5 -50t60 -30t71 -26t60 -49.5t24.5 -88.5q0 -76 -40 -115.5t-109 -45.5l-3 -25q81 -6 81 -65q0 -45 -32 -63t-72 -18q-46 0 -84 8v49h76q36 0 36 24t-34 24h-33 l10 67q-67 9 -100 52t-33 100q0 6 0.5 11t0.5 8v3h86v-10q0 -47 24 -70.5t62 -23.5q34 0 56.5 20.5t22.5 57.5q0 36 -24.5 58t-60 33.5t-71 26t-60 47.5t-24.5 85q0 69 44.5 109.5t119.5 40.5z" />
<glyph unicode="&#x160;" horiz-adv-x="547" d="M273 698q96 0 155.5 -47.5t59.5 -145.5v-12h-91v15q0 51 -34.5 80t-87.5 29q-57 0 -92 -24.5t-35 -71.5q0 -38 26.5 -64t66 -39t85.5 -30t85.5 -35.5t66 -58.5t26.5 -96q0 -110 -62.5 -160t-169.5 -50q-102 0 -166.5 50t-64.5 156q0 4 0.5 11.5t0.5 8.5h91l-1 -4v-9v-8 q0 -61 37.5 -92.5t98.5 -31.5q69 0 106.5 29.5t37.5 84.5q0 47 -37 76t-89 45t-104.5 35.5t-89.5 62.5t-37 112q0 90 61 137t157 47zM398 883l-86 -135h-78l-85 135h80l44 -79l45 79h80z" />
<glyph unicode="&#x161;" horiz-adv-x="410" d="M209 538q71 0 111 -41.5t40 -102.5v-12l-1 -7h-85v9q0 35 -17 58.5t-56 23.5t-55 -22t-16 -50q0 -31 24.5 -50t60 -30t71 -26t60 -49.5t24.5 -88.5q0 -81 -45.5 -121.5t-122.5 -40.5q-85 0 -127 44.5t-42 109.5q0 6 0.5 11t0.5 8v3h86v-10q0 -47 24 -70.5t62 -23.5 q34 0 56.5 20.5t22.5 57.5q0 36 -24.5 58t-60 33.5t-71 26t-60 47.5t-24.5 85q0 69 44.5 109.5t119.5 40.5zM330 723l-86 -135h-78l-85 135h80l44 -79l45 79h80z" />
<glyph unicode="&#x162;" horiz-adv-x="501" d="M293 -60v-84l-29 -78h-44l22 71h-34v91h85zM19 606v80h462v-80h-187v-606h-88v606h-187z" />
<glyph unicode="&#x163;" horiz-adv-x="228" d="M141 672v-146h71v-73h-71v-344q0 -48 47 -48h24v-57q-24 -14 -59 -14q-50 0 -72 34.5t-22 86.5v342h-45v73h45l18 146h64zM157 -60v-84l-29 -78h-45l23 71h-34v91h85z" />
<glyph unicode="&#x164;" horiz-adv-x="501" d="M375 883l-86 -135h-78l-85 135h80l44 -79l45 79h80zM19 606v80h462v-80h-187v-606h-88v606h-187z" />
<glyph unicode="&#x165;" horiz-adv-x="307" d="M141 672v-146h71v-73h-71v-344q0 -48 47 -48h24v-57q-24 -14 -59 -14q-50 0 -72 34.5t-22 86.5v342h-45v73h45l18 146h64zM353 686v-99l-49 -133h-52l40 124h-40v108h101z" />
<glyph unicode="&#x166;" horiz-adv-x="501" d="M481 686v-80h-187v-213h131v-73h-131v-320h-88v320h-129v73h129v213h-187v80h462z" />
<glyph unicode="&#x167;" horiz-adv-x="229" d="M141 672v-146h71v-73h-71v-104h66v-68h-66v-172q0 -48 47 -48h24v-57q-24 -14 -59 -14q-50 0 -72 34.5t-22 86.5v170h-43v68h43v104h-45v73h45l18 146h64z" />
<glyph unicode="&#x168;" horiz-adv-x="592" d="M522 686v-463q0 -114 -59.5 -174.5t-166.5 -60.5t-166.5 60.5t-59.5 174.5v463h88v-468q0 -72 36.5 -110.5t101.5 -38.5t101.5 38.5t36.5 110.5v468h88zM384 883h58q0 -40 -22 -72t-63 -32q-23 0 -59.5 15.5t-55.5 15.5q-30 0 -34 -31h-58q0 40 22 72t63 32q22 0 59 -15 t56 -15q30 0 34 30z" />
<glyph unicode="&#x169;" d="M396 526v-526h-62l-11 61h-6q-41 -73 -127 -73q-130 0 -130 159v379h82v-373q0 -51 19 -71.5t55 -20.5q41 0 69.5 39t28.5 105v321h82zM316 723h58q0 -40 -22 -72t-63 -32q-22 0 -59 15.5t-56 15.5q-30 0 -34 -31h-58q0 40 20 69q23 35 65 35q20 0 59 -15q38 -16 56 -16 q30 0 34 31z" />
<glyph unicode="&#x16a;" horiz-adv-x="592" d="M522 686v-463q0 -114 -59.5 -174.5t-166.5 -60.5t-166.5 60.5t-59.5 174.5v463h88v-468q0 -72 36.5 -110.5t101.5 -38.5t101.5 38.5t36.5 110.5v468h88zM421 831v-72h-250v72h250z" />
<glyph unicode="&#x16b;" d="M396 526v-526h-62l-11 61h-6q-41 -73 -127 -73q-130 0 -130 159v379h82v-373q0 -51 19 -71.5t55 -20.5q41 0 69.5 39t28.5 105v321h82zM354 671v-72h-251v72h251z" />
<glyph unicode="&#x16c;" horiz-adv-x="592" d="M522 686v-463q0 -114 -59.5 -174.5t-166.5 -60.5t-166.5 60.5t-59.5 174.5v463h88v-468q0 -72 36.5 -110.5t101.5 -38.5t101.5 38.5t36.5 110.5v468h88zM356 883h64q0 -37 -34.5 -67t-89.5 -30q-54 0 -89 30.5t-35 66.5h65q3 -12 19 -22.5t40 -10.5t41 10.5t19 22.5z" />
<glyph unicode="&#x16d;" d="M396 526v-526h-62l-11 61h-6q-41 -73 -127 -73q-130 0 -130 159v379h82v-373q0 -51 19 -71.5t55 -20.5q41 0 69.5 39t28.5 105v321h82zM288 723h64q0 -37 -33 -65q-35 -32 -91 -32q-54 0 -89 30.5t-35 66.5h65q3 -12 18 -22q18 -11 41 -11q24 0 41 10.5t19 22.5z" />
<glyph unicode="&#x16e;" horiz-adv-x="592" d="M522 686v-463q0 -114 -59.5 -174.5t-166.5 -60.5t-166.5 60.5t-59.5 174.5v463h88v-468q0 -72 36.5 -110.5t101.5 -38.5t101.5 38.5t36.5 110.5v468h88zM296 915q40 0 68 -28.5t28 -67.5q0 -40 -28 -68t-68 -28q-39 0 -67.5 28t-28.5 68t28 68t68 28zM296 870 q-21 0 -36 -15t-15 -36t15 -36t36 -15q20 0 35.5 15t15.5 36t-15.5 36t-35.5 15z" />
<glyph unicode="&#x16f;" d="M396 526v-526h-62l-11 61h-6q-41 -73 -127 -73q-130 0 -130 159v379h82v-373q0 -51 19 -71.5t55 -20.5q41 0 69.5 39t28.5 105v321h82zM228 754q40 0 68 -28t28 -67q0 -40 -28 -68.5t-68 -28.5q-39 0 -67.5 28t-28.5 69q0 40 28 67.5t68 27.5zM228 709q-21 0 -36 -14.5 t-15 -35.5t15 -36.5t36 -15.5q20 0 35.5 15.5t15.5 36.5t-15 35.5t-36 14.5z" />
<glyph unicode="&#x170;" horiz-adv-x="592" d="M522 686v-463q0 -114 -59.5 -174.5t-166.5 -60.5t-166.5 60.5t-59.5 174.5v463h88v-468q0 -72 36.5 -110.5t101.5 -38.5t101.5 38.5t36.5 110.5v468h88zM482 883l1 -3l-84 -129h-68l62 132h89zM352 883l1 -3l-84 -129h-69l62 132h90z" />
<glyph unicode="&#x171;" d="M396 526v-526h-62l-11 61h-6q-41 -73 -127 -73q-130 0 -130 159v379h82v-373q0 -51 19 -71.5t55 -20.5q41 0 69.5 39t28.5 105v321h82zM415 723l1 -3l-84 -129h-69l62 132h90zM284 723l1 -3l-84 -129h-69l62 132h90z" />
<glyph unicode="&#x172;" horiz-adv-x="592" d="M522 686v-463q0 -167 -125 -218q-27 -32 -27 -67q0 -55 46 -55h31v-51q-33 -14 -61 -14q-38 0 -66 21.5t-28 68.5q0 46 27 81q-3 0 -11 -0.5t-12 -0.5q-107 0 -166.5 60.5t-59.5 174.5v463h88v-468q0 -72 36.5 -110.5t101.5 -38.5t101.5 38.5t36.5 110.5v468h88z" />
<glyph unicode="&#x173;" d="M396 526v-526h-6q-24 -33 -24 -62q0 -55 45 -55h32v-51q-33 -14 -61 -14q-38 0 -66 21.5t-28 68.5q0 54 44 100l-9 53h-6q-41 -73 -127 -73q-130 0 -130 159v379h82v-373q0 -51 19 -71.5t55 -20.5q41 0 69.5 39t28.5 105v321h82z" />
<glyph unicode="&#x174;" horiz-adv-x="774" d="M764 686l-159 -686h-114l-84 465l-19 138h-4q-11 -92 -19 -138l-82 -465h-114l-159 686h93l105 -474l21 -122h4q7 62 17 122l79 474h122l85 -474l18 -122h4q11 77 21 122l105 474h80zM427 882l85 -135h-80l-44 79l-45 -79h-80l86 135h78z" />
<glyph unicode="&#x175;" horiz-adv-x="592" d="M590 526l-131 -526h-91l-55 300l-16 121h-4q-6 -66 -16 -121l-54 -300h-91l-131 526h90l66 -296l21 -125h4q7 71 16 125l53 296h95l54 -296l16 -125h4q8 65 21 125l66 296h83zM335 722l86 -135h-80l-44 79l-46 -79h-80l86 135h78z" />
<glyph unicode="&#x176;" horiz-adv-x="547" d="M539 686l-221 -402v-284h-88v284l-222 402h97l174 -318h4l171 318h85zM313 882l85 -135h-80l-44 79l-45 -79h-80l86 135h78z" />
<glyph unicode="&#x177;" horiz-adv-x="410" d="M401 526l-134 -499q-26 -98 -66 -153.5t-104 -55.5q-36 0 -59 8v57h29q79 0 104 117l-161 526h90l116 -408h4l98 408h83zM245 722l85 -135h-80l-44 79l-45 -79h-80l86 135h78z" />
<glyph unicode="&#x178;" horiz-adv-x="547" d="M539 686l-221 -402v-284h-88v284l-222 402h97l174 -318h4l171 318h85zM392 883v-95h-87v95h87zM242 883v-95h-87v95h87z" />
<glyph unicode="&#x179;" horiz-adv-x="501" d="M368 880l-108 -129h-69l86 132h90zM479 0h-459v38l326 568h-305v80h431v-38l-327 -568h334v-80z" />
<glyph unicode="&#x17a;" horiz-adv-x="410" d="M370 488l-232 -415h245v-73h-357v39l231 414h-215v73h328v-38zM322 720l-107 -129h-69l85 132h90z" />
<glyph unicode="&#x17b;" horiz-adv-x="501" d="M294 883v-95h-87v95h87zM479 0h-459v38l326 568h-305v80h431v-38l-327 -568h334v-80z" />
<glyph unicode="&#x17c;" horiz-adv-x="410" d="M370 526v-38l-232 -415h245v-73h-357v39l231 414h-215v73h328zM249 723v-95h-87v95h87z" />
<glyph unicode="&#x17d;" horiz-adv-x="501" d="M375 883l-86 -135h-78l-85 135h80l44 -79l45 79h80zM479 0h-459v38l326 568h-305v80h431v-38l-327 -568h334v-80z" />
<glyph unicode="&#x17e;" horiz-adv-x="410" d="M370 526v-38l-232 -415h245v-73h-357v39l231 414h-215v73h328zM330 723l-86 -135h-78l-85 135h80l44 -79l45 79h80z" />
<glyph unicode="&#x17f;" horiz-adv-x="182" d="M159 731q35 0 69 -12v-57h-44q-47 0 -47 -48v-614h-82v453h-46v73h46v84q0 52 24.5 86.5t79.5 34.5z" />
<glyph unicode="&#x192;" d="M353 731q34 0 66 -12l-8 -57h-44q-50 0 -53 -48l-22 -139h91l-11 -73h-91l-67 -463q-17 -121 -122 -121q-35 0 -65 12l7 57h44q50 0 53 48l68 467h-71l11 73h71l21 135q9 58 37 89.5t85 31.5z" />
<glyph unicode="&#x1fa;" horiz-adv-x="547" d="M274 821q40 0 68 -27t28 -65q0 -40 -32 -69l210 -660h-95l-47 153h-272l-47 -153h-88l210 661q-31 26 -31 68q0 38 28 65t68 27zM272 614h-4q-9 -54 -16 -76l-94 -305h223l-93 305zM274 778q-21 0 -36 -14.5t-15 -34.5t15 -34.5t36 -14.5q20 0 35.5 14.5t15.5 34.5 t-15.5 34.5t-35.5 14.5zM404 957l1 -4l-93 -105h-69l71 109h90z" />
<glyph unicode="&#x1fb;" d="M229 745q40 0 67.5 -26t27.5 -64t-27.5 -64t-67.5 -26t-68.5 25.5t-28.5 64.5q0 38 28 64t69 26zM229 701q-21 0 -36.5 -13t-15.5 -33t15.5 -33.5t36.5 -13.5q20 0 35 13.5t15 33.5t-15 33t-35 13zM223 538q79 0 119 -38t40 -109v-295q0 -35 28 -35h32v-57 q-22 -12 -54 -12t-53.5 17.5t-29.5 47.5h-5q-43 -69 -128 -69q-18 0 -34.5 3t-36 12.5t-34 25t-24 43.5t-9.5 64q0 53 19.5 88.5t57 54t82.5 26t107 7.5v68q0 41 -18 63t-65 22q-43 0 -62 -24t-19 -59v-12h-81q-1 6 -1 22q0 70 46 108t123 38zM300 191v48q-90 0 -135 -20.5 t-45 -77.5q0 -43 17.5 -61.5t53.5 -18.5q43 0 76 34.5t33 95.5zM361 883l1 -3l-97 -112h-69l75 115h90z" />
<glyph unicode="&#x1fc;" horiz-adv-x="820" d="M625 880l-108 -129h-69l86 132h90zM783 0h-330l-34 153h-273l-59 -153h-88l280 686h498v-80h-367l49 -215h274v-80h-256l52 -231h254v-80zM298 543l-121 -310h225l-68 310l-11 62h-4q-13 -40 -21 -62z" />
<glyph unicode="&#x1fd;" horiz-adv-x="729" d="M504 538q88 0 130.5 -58.5t42.5 -188.5v-52h-285q1 -92 28.5 -135t86.5 -43q40 0 64.5 32t24.5 86h81q0 -88 -47.5 -139.5t-124.5 -51.5q-113 0 -160 80q-60 -80 -152 -80q-153 0 -153 148q0 53 19.5 88.5t57 54t82.5 26t107 7.5v68q0 41 -18 63t-65 22q-43 0 -62 -24 t-19 -59v-12h-81q-1 6 -1 22q0 70 46 108t123 38q97 0 135 -60q48 60 140 60zM306 183v56q-90 0 -135 -20.5t-45 -77.5q0 -43 17.5 -61.5t53.5 -18.5q43 0 76 32t33 90zM504 465q-53 0 -79.5 -37.5t-31.5 -115.5h198q0 153 -87 153zM482 720l-107 -129h-70l86 132h90z" />
<glyph unicode="&#x1fe;" horiz-adv-x="638" d="M589 723l-72 -114q72 -92 72 -266q0 -175 -71 -265t-199 -90q-97 0 -159 49l-46 -74h-64l71 113q-72 90 -72 267q0 175 71 265t199 90q95 0 159 -50l47 75h64zM466 527l-260 -416q43 -42 113 -42q84 0 131 63t47 186v50q0 97 -31 159zM319 617q-84 0 -131 -63t-47 -186 v-50q0 -98 31 -160l260 416q-44 43 -113 43zM437 880l-108 -129h-69l86 132h90z" />
<glyph unicode="&#x1ff;" horiz-adv-x="501" d="M438 558l-48 -87q48 -67 48 -208q0 -275 -188 -275q-65 0 -106 31l-27 -51h-55l47 87q-47 68 -47 208q0 275 188 275q64 0 105 -31l28 51h55zM341 380l-157 -289q24 -30 66 -30q102 0 102 183v38q0 57 -11 98zM250 465q-102 0 -102 -183v-38q0 -60 10 -99l158 290 q-26 30 -66 30zM368 720l-108 -129h-69l86 132h90z" />
<glyph unicode="&#x2c6;" horiz-adv-x="273" d="M174 722l85 -135h-80l-44 79l-45 -79h-80l86 135h78z" />
<glyph unicode="&#x2c7;" horiz-adv-x="273" d="M259 723l-86 -135h-78l-85 135h80l44 -79l45 79h80z" />
<glyph unicode="&#x2c9;" horiz-adv-x="500" d="M501 844v-53h-501v53h501z" />
<glyph unicode="&#x2d8;" horiz-adv-x="273" d="M194 723h64q0 -37 -33 -65q-35 -32 -91 -32q-54 0 -88.5 30.5t-34.5 66.5h64q3 -12 18 -22q20 -11 41 -11q24 0 41 10.5t19 22.5z" />
<glyph unicode="&#x2d9;" horiz-adv-x="273" d="M180 723v-95h-87v95h87z" />
<glyph unicode="&#x2da;" horiz-adv-x="273" d="M139 754q40 0 68 -28t28 -67q0 -40 -28 -68.5t-68 -28.5q-39 0 -67.5 28t-28.5 69q0 40 28 67.5t68 27.5zM139 709q-21 0 -36 -14.5t-15 -35.5t15 -36.5t36 -15.5q20 0 35.5 15.5t15.5 36.5t-15 35.5t-36 14.5z" />
<glyph unicode="&#x2db;" horiz-adv-x="273" d="M180 12v-4q-30 -35 -30 -70q0 -55 45 -55h32v-51q-33 -14 -61 -14q-38 0 -66 21.5t-28 68.5q0 54 48 104h60z" />
<glyph unicode="&#x2dc;" horiz-adv-x="273" d="M224 723h58q0 -40 -22 -72t-63 -32q-22 0 -59 15.5t-56 15.5q-30 0 -34 -31h-58q0 40 20 69q23 35 65 35q20 0 59 -15q38 -16 56 -16q30 0 34 31z" />
<glyph unicode="&#x2dd;" horiz-adv-x="273" d="M286 723l1 -3l-84 -129h-69l62 132h90zM156 723l1 -3l-84 -129h-69l62 132h90z" />
<glyph unicode="&#x3c0;" horiz-adv-x="556" d="M538 526l-8 -73h-78v-297q0 -107 13 -156h-80q-15 27 -15 147v306h-157q-5 -109 -24 -250t-41 -203h-81q24 77 43 214.5t21 238.5q-77 0 -107 -13l-12 56q36 30 145 30h381z" />
<glyph unicode="&#x1e80;" horiz-adv-x="774" d="M605 0h-114l-84 465l-19 138h-4q-11 -92 -19 -138l-82 -465h-114l-159 686h93l105 -474l21 -122h4q7 62 17 122l79 474h122l85 -474l18 -122h4q11 77 21 122l105 474h80zM447 751h-69l-108 129l1 3h90z" />
<glyph unicode="&#x1e81;" horiz-adv-x="592" d="M459 0h-91l-55 300l-16 121h-4q-6 -66 -16 -121l-54 -300h-91l-131 526h90l66 -296l21 -125h4q7 71 16 125l53 296h95l54 -296l16 -125h4q8 65 21 125l66 296h83zM355 591h-68l-109 129l1 3h91z" />
<glyph unicode="&#x1e82;" horiz-adv-x="774" d="M605 0h-114l-84 465l-19 138h-4q-11 -92 -19 -138l-82 -465h-114l-159 686h93l105 -474l21 -122h4q7 62 17 122l79 474h122l85 -474l18 -122h4q11 77 21 122l105 474h80zM504 880l-107 -129h-69l86 132h89z" />
<glyph unicode="&#x1e83;" horiz-adv-x="592" d="M459 0h-91l-55 300l-16 121h-4q-6 -66 -16 -121l-54 -300h-91l-131 526h90l66 -296l21 -125h4q7 71 16 125l53 296h95l54 -296l16 -125h4q8 65 21 125l66 296h83zM413 720l-107 -129h-70l86 132h90z" />
<glyph unicode="&#x1e84;" horiz-adv-x="774" d="M764 686l-159 -686h-114l-84 465l-19 138h-4q-11 -92 -19 -138l-82 -465h-114l-159 686h93l105 -474l21 -122h4q7 62 17 122l79 474h122l85 -474l18 -122h4q11 77 21 122l105 474h80zM506 883v-95h-88v95h88zM355 883v-95h-86v95h86z" />
<glyph unicode="&#x1e85;" horiz-adv-x="592" d="M590 526l-131 -526h-91l-55 300l-16 121h-4q-6 -66 -16 -121l-54 -300h-91l-131 526h90l66 -296l21 -125h4q7 71 16 125l53 296h95l54 -296l16 -125h4q8 65 21 125l66 296h83zM415 723v-95h-88v95h88zM264 723v-95h-87v95h87z" />
<glyph unicode="&#x1ef2;" horiz-adv-x="547" d="M318 284v-284h-88v284l-222 402h97l174 -318h4l171 318h85zM333 751h-69l-108 129l1 3h90z" />
<glyph unicode="&#x1ef3;" horiz-adv-x="410" d="M401 526l-134 -499q-26 -98 -66 -153.5t-104 -55.5q-36 0 -59 8v57h29q79 0 104 117l-161 526h90l116 -408h4l98 408h83zM265 591h-69l-109 129l1 3h91z" />
<glyph unicode="&#x2013;" d="M455 308v-75h-455v75h455z" />
<glyph unicode="&#x2014;" horiz-adv-x="820" d="M820 308v-75h-820v75h820z" />
<glyph unicode="&#x2015;" horiz-adv-x="820" d="M715 308v-75h-613v75h613z" />
<glyph unicode="&#x2017;" horiz-adv-x="500" d="M478 -71v-53h-455v53h455zM478 -164v-53h-455v53h455z" />
<glyph unicode="&#x2018;" horiz-adv-x="182" d="M141 686l-40 -124h40v-108h-100v99l48 133h52z" />
<glyph unicode="&#x2019;" horiz-adv-x="182" d="M141 686v-99l-48 -133h-52l40 124h-40v108h100z" />
<glyph unicode="&#x201a;" horiz-adv-x="182" d="M137 108v-99l-48 -133h-52l40 124h-40v108h100z" />
<glyph unicode="&#x201b;" horiz-adv-x="182" d="M141 686v-108h-40l40 -124h-52l-48 133v99h100z" />
<glyph unicode="&#x201c;" horiz-adv-x="273" d="M122 686l-40 -124h40v-108h-100v99l48 133h52zM249 686l-40 -124h40v-108h-100v99l48 133h52z" />
<glyph unicode="&#x201d;" horiz-adv-x="273" d="M251 686v-99l-48 -133h-52l40 124h-40v108h100zM124 686v-99l-48 -133h-52l40 124h-40v108h100z" />
<glyph unicode="&#x201e;" horiz-adv-x="273" d="M251 108v-99l-48 -133h-52l40 124h-40v108h100zM124 108v-99l-48 -133h-52l40 124h-40v108h100z" />
<glyph unicode="&#x2020;" d="M271 686l-17 -193l166 17v-93l-166 18l20 -605h-94l20 605l-165 -18v93l165 -17l-17 193h88z" />
<glyph unicode="&#x2021;" d="M271 686l-17 -193l166 17v-93l-166 18l20 -175l-20 -179l166 18v-93l-166 17l17 -193h-88l17 193l-165 -17v93l165 -18l-20 179l20 175l-165 -18v93l165 -17l-17 193h88z" />
<glyph unicode="&#x2022;" horiz-adv-x="287" d="M143 455q46 0 78 -32.5t32 -78.5t-32 -79t-78 -33q-45 0 -77 33t-32 79t32 78.5t77 32.5z" />
<glyph unicode="&#x2026;" horiz-adv-x="820" d="M732 108v-108h-100v108h100zM187 108v-108h-100v108h100zM460 108v-108h-100v108h100z" />
<glyph unicode="&#x2030;" horiz-adv-x="820" d="M437 349q58 0 88 -41.5t30 -139.5t-29.5 -139t-88.5 -41q-58 0 -88 41.5t-30 138.5q0 98 30 139.5t88 41.5zM437 290q-28 0 -38.5 -29t-10.5 -85v-15q0 -56 10.5 -85t38.5 -29t38.5 29t10.5 85v15q0 56 -10.5 85t-38.5 29zM153 698q58 0 88 -41.5t30 -139.5t-29.5 -139 t-88.5 -41q-58 0 -88 41.5t-30 138.5q0 98 30 139.5t88 41.5zM153 639q-28 0 -38.5 -29t-10.5 -85v-15q0 -56 10.5 -85t38.5 -29t38.5 29t10.5 85v15q0 56 -10.5 85t-38.5 29zM702 349q58 0 88 -41.5t30 -139.5t-29.5 -139t-88.5 -41q-58 0 -88 41.5t-30 138.5 q0 98 30 139.5t88 41.5zM702 290q-28 0 -38.5 -29t-10.5 -85v-15q0 -56 10.5 -85t38.5 -29t38.5 29t10.5 85v15q0 56 -10.5 85t-38.5 29zM515 686l-379 -686h-62l378 686h63z" />
<glyph unicode="&#x2032;" horiz-adv-x="157" d="M138 686l1 -3l-47 -157h-69l25 160h90z" />
<glyph unicode="&#x2033;" horiz-adv-x="291" d="M265 686l1 -3l-47 -157h-69l25 160h90zM138 686l1 -3l-47 -157h-69l25 160h90z" />
<glyph unicode="&#x2039;" horiz-adv-x="273" d="M241 526l-113 -200l113 -200h-71l-141 200l141 200h71z" />
<glyph unicode="&#x203a;" horiz-adv-x="273" d="M103 526l141 -200l-141 -200h-71l113 200l-113 200h71z" />
<glyph unicode="&#x203c;" d="M275 686h113q-1 -10 -26 -515h-62q-20 437 -25 515zM167 108v-108h-100v108h100zM382 108v-108h-100v108h100zM60 686h113q-1 -10 -26 -515h-62q-20 437 -25 515z" />
<glyph unicode="&#x203e;" horiz-adv-x="500" d="M501 844v-53h-501v53h501z" />
<glyph unicode="&#x2044;" horiz-adv-x="137" d="M304 698l-415 -710h-63l416 710h62z" />
<glyph unicode="&#x207f;" horiz-adv-x="299" d="M176 735q89 0 89 -110v-256h-59v252q0 61 -48 61q-27 0 -45 -25.5t-18 -69.5v-218h-60v358h46l8 -41q25 49 87 49z" />
<glyph unicode="&#x20a3;" horiz-adv-x="504" d="M491 457v-85h-27q-43 0 -70.5 -29.5t-27.5 -94.5v-248h-82v304h-136v-304h-88v686h338v-80h-250v-222h136v69h62l11 -69h6q26 81 89 81q10 0 19.5 -2t14.5 -4z" />
<glyph unicode="&#x20a4;" d="M252 698q161 0 161 -194v-13h-82v16q0 118 -79 118q-78 0 -78 -110v-92h133v-72h-133v-50h133v-71h-133l-10 -151h249v-79h-383v79h61v151h-72v71h72v50h-72v72h72v76q0 98 42 148.5t119 50.5z" />
<glyph unicode="&#x20a7;" horiz-adv-x="953" d="M545 672v-146h148q17 6 34 9q19 3 39 3q71 0 111 -41.5t40 -102.5q0 -4 -1 -12v-7h-85v9q0 81 -73 81q-39 0 -54.5 -21.5t-15.5 -49.5q0 -31 24.5 -50t60 -30t70.5 -26t59.5 -49.5t24.5 -88.5q0 -81 -45.5 -121.5t-122.5 -40.5q-101 0 -143 64v-48q-24 -14 -59 -14 q-50 0 -72 32t-22 79v352h-26q-10 -79 -63.5 -125.5t-139.5 -46.5h-76v-281h-88v686h164q86 0 138 -43t64 -117h27l18 146h64zM591 164h86v-10q0 -47 23.5 -70t62.5 -23q34 0 56 20t22 57q0 36 -24.5 58t-59.5 33.5t-70.5 26t-60 47.5t-24.5 85q0 36 12 65h-69v-344 q0 -48 42 -48h23q-20 34 -20 81v11t0.5 7.5t0.5 3.5zM231 606h-73v-245h73q53 0 84.5 33t31.5 90q0 56 -30.5 89t-85.5 33z" />
<glyph unicode="&#x20ac;" d="M360 698q36 0 67 -10v-71q-29 8 -55 8q-75 0 -130 -46t-75 -136h202v-65h-211q-1 -12 -1 -35q0 -24 1 -35h211v-65h-202q20 -90 75 -136t130 -46q26 0 55 8v-71q-37 -10 -67 -10q-113 0 -185 66t-93 189h-63v65h56q-1 11 -1 35q0 23 1 35h-56v65h63q21 123 93 189t185 66 z" />
<glyph unicode="&#x2105;" horiz-adv-x="758" d="M611 698l-415 -710h-63l416 710h62zM179 698q116 0 116 -156h-69q0 50 -10.5 72.5t-36.5 22.5q-61 0 -61 -121v-25q0 -120 61 -120q50 0 50 95h66q0 -68 -28.5 -112t-87.5 -44q-68 0 -99.5 46.5t-31.5 147.5q0 100 32 147t99 47zM575 315q-65 0 -65 -121v-25 q0 -121 65 -121q66 0 66 121v25q0 121 -66 121zM575 376q135 0 135 -195q0 -194 -135 -194q-134 0 -134 194q0 195 134 195z" />
<glyph unicode="&#x2113;" horiz-adv-x="349" d="M207 735q51 0 77.5 -42t26.5 -111q0 -160 -168 -346v-38q0 -72 24 -106.5t63 -34.5q37 0 69 30v-73q-38 -26 -82 -26q-73 0 -106.5 49.5t-35.5 130.5v14l-34 -32v70q21 21 33 35v253q0 119 38.5 173t94.5 54zM208 671q-27 0 -46 -39t-19 -124v-190q112 149 112 265 q0 88 -47 88z" />
<glyph unicode="&#x2116;" horiz-adv-x="880" d="M707 636q-63 0 -63 -122v-26q0 -122 63 -122t63 122v26q0 122 -63 122zM707 698q135 0 135 -197t-135 -197t-135 197t135 197zM516 686v-686h-73l-257 437l-44 92l-3 -1q4 -63 4 -91v-437h-79v686h76l255 -431l42 -92l3 1q-3 69 -3 91v431h79zM831 264v-62h-247v62h247z " />
<glyph unicode="&#x2122;" horiz-adv-x="820" d="M723 686v-404h-52v336h-4l-88 -336h-47l-87 336h-4v-336h-47v404h79l84 -323h4l84 323h78zM351 686v-49h-109v-354h-52v354h-110v49h271z" />
<glyph unicode="&#x2126;" horiz-adv-x="768" d="M384 698q128 0 199 -90t71 -265q0 -170 -93 -263q6 0 30 2t38 2h25v-84h-238v61q70 15 108 75.5t38 164.5v67q0 123 -47 186t-131 63t-131 -63t-47 -186v-63q0 -105 38 -167t107 -77v-61h-237v84h25q8 0 30.5 -2t36.5 -2q-92 92 -92 263q0 175 71 265t199 90z" />
<glyph unicode="&#x212e;" horiz-adv-x="600" d="M302 538q117 0 187 -79.5t70 -205.5v-5h-406v-165q58 -53 149 -53q65 0 114.5 29t75.5 80l34 -21q-32 -61 -89.5 -95.5t-134.5 -34.5q-118 0 -187.5 77t-69.5 198t69.5 198t187.5 77zM302 496q-90 0 -149 -54v-152h298v151q-60 55 -149 55z" />
<glyph unicode="&#x215b;" horiz-adv-x="684" d="M530 174q-25 0 -38.5 -17t-13.5 -47q0 -64 52 -64q51 0 51 64t-51 64zM530 408q51 0 79 -33.5t28 -83.5q0 -55 -41 -88q48 -28 48 -93q0 -54 -28.5 -88t-85.5 -34q-58 0 -86.5 34t-28.5 88q0 64 48 94q-40 34 -40 87q0 50 28 83.5t79 33.5zM530 350q-20 0 -32.5 -16 t-12.5 -43q0 -28 12 -44t33 -16t33 16t12 44q0 27 -12.5 43t-32.5 16zM591 698l-415 -710h-63l416 710h62zM171 686v-344h73v-58h-214v58h79v258h-80v43q61 8 113 43h29z" />
<glyph unicode="&#x215c;" horiz-adv-x="684" d="M530 174q-25 0 -38.5 -17t-13.5 -47q0 -64 52 -64q51 0 51 64t-51 64zM585 698l-415 -710h-63l416 710h62zM530 408q51 0 79 -33.5t28 -83.5q0 -55 -41 -88q48 -28 48 -93q0 -54 -28.5 -88t-85.5 -34q-58 0 -86.5 34t-28.5 88q0 64 48 94q-40 34 -40 87q0 50 28 83.5 t79 33.5zM530 350q-20 0 -32.5 -16t-12.5 -43q0 -28 12 -44t33 -16t33 16t12 44q0 27 -12.5 43t-32.5 16zM155 698q50 0 80 -30t30 -85q0 -59 -48 -89q54 -28 54 -96q0 -55 -31.5 -87t-82.5 -32q-56 0 -87 33.5t-31 91.5v11h64v-13q0 -66 50 -66q55 0 55 65q0 62 -56 62h-35 v57h36q21 0 35 15.5t14 44.5q0 30 -13 45.5t-33 15.5q-21 0 -34 -16t-13 -47v-13h-63v18q0 52 30.5 83.5t78.5 31.5z" />
<glyph unicode="&#x215d;" horiz-adv-x="684" d="M537 174q-25 0 -38.5 -17t-13.5 -47q0 -64 52 -64q51 0 51 64t-51 64zM537 408q51 0 79 -33.5t28 -83.5q0 -55 -41 -88q48 -28 48 -93q0 -54 -28.5 -88t-85.5 -34q-58 0 -86.5 34t-28.5 88q0 64 48 94q-40 34 -40 87q0 50 28 83.5t79 33.5zM537 350q-20 0 -32.5 -16 t-12.5 -43q0 -28 12 -44t33 -16t33 16t12 44q0 27 -12.5 43t-32.5 16zM589 698l-415 -710h-63l416 710h62zM252 686v-64h-140l-6 -100q27 27 62 27q44 0 72 -34.5t28 -99.5q0 -68 -31 -105.5t-85 -37.5t-86 35t-32 97h64q0 -34 15.5 -54t38.5 -20q24 0 38 21.5t14 63.5 q0 36 -13.5 56.5t-34.5 20.5q-32 0 -54 -43l-57 10l14 227h193z" />
<glyph unicode="&#x215e;" horiz-adv-x="684" d="M541 174q-25 0 -38.5 -17t-13.5 -47q0 -64 52 -64q51 0 51 64t-51 64zM541 408q51 0 79 -33.5t28 -83.5q0 -55 -41 -88q48 -28 48 -93q0 -54 -28.5 -88t-85.5 -34q-58 0 -86.5 34t-28.5 88q0 64 48 94q-40 34 -40 87q0 50 28 83.5t79 33.5zM541 350q-20 0 -32.5 -16 t-12.5 -43q0 -28 12 -44t33 -16t33 16t12 44q0 27 -12.5 43t-32.5 16zM573 698l-415 -710h-63l416 710h62zM295 686v-38l-1 -4q-119 -180 -119 -322q0 -10 2 -36h-70q0 160 109 337h-157v63h236z" />
<glyph unicode="&#x2190;" horiz-adv-x="1000" d="M281 426l-58 -137h737v-73h-737l58 -137h-42l-197 163v21l197 163h42z" />
<glyph unicode="&#x2191;" horiz-adv-x="500" d="M261 710l163 -197v-42l-137 58v-737h-73v737l-137 -58v42l163 197h21z" />
<glyph unicode="&#x2192;" horiz-adv-x="1000" d="M762 426l197 -163v-21l-197 -163h-42l58 137h-737v73h737l-58 137h42z" />
<glyph unicode="&#x2193;" horiz-adv-x="500" d="M287 710v-737l137 58v-42l-163 -197h-21l-163 197v42l137 -58v737h73z" />
<glyph unicode="&#x2194;" horiz-adv-x="1000" d="M762 426l197 -163v-21l-197 -163h-42l58 137h-550l53 -137h-42l-197 163v21l197 163h42l-53 -137h550l-58 137h42z" />
<glyph unicode="&#x2195;" horiz-adv-x="500" d="M260 711l163 -197v-42l-137 53v-550l137 58v-42l-163 -197h-21l-163 197v42l137 -58v550l-137 -53v42l163 197h21z" />
<glyph unicode="&#x21a8;" horiz-adv-x="500" d="M260 711l163 -197v-42l-137 53v-550l137 58v-42l-163 -197h-21l-163 197v42l137 -58v550l-137 -53v42l163 197h21zM425 -255v-48h-350v48h350z" />
<glyph unicode="&#x2202;" horiz-adv-x="494" d="M222 735q90 0 152 -88.5t62 -263.5q0 -187 -57 -291t-162 -104q-76 0 -118.5 62t-42.5 154q0 110 53 177.5t126 67.5q44 0 74 -22t43 -47h4q1 6 1 34q0 107 -41.5 179.5t-103.5 72.5q-55 0 -98 -34v74q49 29 108 29zM248 382q-45 0 -76 -53.5t-31 -127.5q0 -64 22 -102 t61 -38q51 0 84.5 70t40.5 168q-9 32 -36.5 57.5t-64.5 25.5z" />
<glyph unicode="&#x2206;" horiz-adv-x="559" d="M16 0v38l209 648h113l210 -648v-38h-532zM277 589l-160 -505h319l-155 505h-4z" />
<glyph unicode="&#x220f;" horiz-adv-x="823" d="M717 723v-80h-83v-771h-81v771h-284v-771h-81v771h-82v80h611z" />
<glyph unicode="&#x2211;" horiz-adv-x="713" d="M645 723v-78h-429v-4l262 -326l-283 -351v-4h467v-88h-575v63l290 364l-281 357v67h549z" />
<glyph unicode="&#x2212;" horiz-adv-x="479" d="M435 297v-84h-392v84h392z" />
<glyph unicode="&#x2215;" horiz-adv-x="137" d="M304 698l-415 -710h-63l416 710h62z" />
<glyph unicode="&#x2219;" horiz-adv-x="273" d="M186 399v-111h-101v111h101z" />
<glyph unicode="&#x221a;" horiz-adv-x="549" d="M548 857l-162 -1005h-90q-57 147 -169 441l-77 -30l-20 60l162 68q23 -65 67.5 -185t59.5 -162q10 -28 21 -74l137 887h71z" />
<glyph unicode="&#x221e;" horiz-adv-x="713" d="M517 453q67 0 107.5 -45t40.5 -111q0 -67 -40 -111t-107 -44q-83 0 -162 96q-38 -45 -76 -70.5t-86 -25.5q-67 0 -107 44t-40 111q0 66 40.5 111t107.5 45q47 0 84.5 -25.5t76.5 -71.5q80 97 161 97zM195 377q-30 0 -52 -24t-22 -58t21.5 -57.5t51.5 -23.5q31 0 57 21 t58 62q-31 39 -57.5 59.5t-56.5 20.5zM517 377q-31 0 -57 -20t-58 -60q32 -41 58.5 -62t57.5 -21q30 0 51.5 23.5t21.5 57.5t-22 58t-52 24z" />
<glyph unicode="&#x221f;" horiz-adv-x="979" d="M251 625v-559h551v-66h-625v625h74z" />
<glyph unicode="&#x2229;" horiz-adv-x="722" d="M360 676q112 0 188.5 -76t76.5 -198v-402h-74v395q0 96 -55 155.5t-136 59.5t-136 -59.5t-55 -155.5v-395h-73v402q0 122 76 198t188 76z" />
<glyph unicode="&#x222b;" horiz-adv-x="274" d="M249 859v-49q-87 0 -87 -57q28 -629 28 -782q0 -65 -41 -88.5t-116 -23.5v50q85 0 85 58q-27 626 -27 780q0 65 41.5 88.5t116.5 23.5z" />
<glyph unicode="&#x2248;" horiz-adv-x="549" d="M512 420v-94q-2 -3 -5.5 -8t-16.5 -18t-27.5 -22.5t-38.5 -17.5t-50 -8q-34 0 -100 31q-62 31 -101 31q-36 0 -70.5 -18.5t-50.5 -37.5l-17 -18v94q2 3 5.5 8t16.5 18t27.5 22.5t38.5 17.5t50 8q38 0 100 -31q66 -31 101 -31q36 0 70.5 18.5t51.5 37.5zM512 207v-94 q-2 -3 -5.5 -8t-16.5 -18t-27.5 -22.5t-38.5 -17.5t-50 -8q-34 0 -100 31q-62 31 -101 31q-36 0 -70.5 -18.5t-50.5 -36.5l-17 -19v94q2 3 5.5 8t16.5 18t27.5 22.5t38.5 17.5t50 8q38 0 100 -31q66 -31 101 -31q36 0 70.5 18.5t51.5 36.5z" />
<glyph unicode="&#x2260;" horiz-adv-x="549" d="M425 484l-42 -82h91v-84h-134l-65 -129h199v-83h-241l-41 -81h-61l41 81h-90v83h132l65 129h-197v84h240l42 82h61z" />
<glyph unicode="&#x2261;" horiz-adv-x="478" d="M435 516v-84h-392v84h392zM435 90v-83h-392v83h392zM435 303v-84h-392v84h392z" />
<glyph unicode="&#x2264;" horiz-adv-x="549" d="M470 604v-90l-311 -160l311 -160v-90l-392 196v107zM471 83v-83h-392v83h392z" />
<glyph unicode="&#x2265;" horiz-adv-x="549" d="M79 604l392 -197v-107l-392 -196v90l311 160l-311 160v90zM470 83v-83h-392v83h392z" />
<glyph unicode="&#x2302;" horiz-adv-x="600" d="M300 563l225 -253v-310h-450v310zM300 468l-161 -181v-227h323v227z" />
<glyph unicode="&#x2310;" horiz-adv-x="479" d="M435 453v-93h-312v-163h-84v256h396z" />
<glyph unicode="&#x2320;" horiz-adv-x="604" d="M417 859v-49q-87 0 -87 -57q9 -523 17 -1003h-74q-14 880 -14 997q0 65 41.5 88.5t116.5 23.5z" />
<glyph unicode="&#x2321;" horiz-adv-x="604" d="M257 859h74q14 -880 14 -997q0 -65 -41.5 -88.5t-116.5 -23.5v49q87 0 87 57q-9 523 -17 1003z" />
<glyph unicode="&#xe000;" horiz-adv-x="525" d="M0 525h525v-525h-525v525z" />
<glyph unicode="&#xf6c3;" horiz-adv-x="273" d="M181 -60v-84l-29 -78h-45l23 71h-34v91h85z" />
<glyph unicode="&#xfb01;" horiz-adv-x="410" d="M159 731q35 0 69 -12v-57h-44q-47 0 -47 -48v-88h91v-73h-91v-453h-82v453h-46v73h46v84q0 52 24.5 86.5t79.5 34.5zM360 526v-526h-82v526h82zM360 723v-98h-82v98h82z" />
<glyph unicode="&#xfb02;" horiz-adv-x="410" d="M159 731q35 0 69 -12v-57h-44q-47 0 -47 -48v-88h91v-73h-91v-453h-82v453h-46v73h46v84q0 52 24.5 86.5t79.5 34.5zM360 723v-723h-82v723h82z" />
<glyph horiz-adv-x="0" />
</font>
</defs>
</svg>
